<?xml version="1.0" encoding="utf-8"?>
<!-- Generator: Adobe Illustrator 27.5.0, SVG Export Plug-In . SVG Version: 6.00 Build 0)  -->
<svg version="1.1" xmlns="http://www.w3.org/2000/svg" xmlns:xlink="http://www.w3.org/1999/xlink" x="0px" y="0px"
	 viewBox="0 0 500 500" style="enable-background:new 0 0 500 500;" xml:space="preserve">
<g id="Background_Complete">
	<g>
		<g>
			<g>
				<g>
					<polygon style="fill:#EBEBEB;" points="329.93,260.697 330.208,278.131 473.69,278.131 473.69,260.697 					"/>
				</g>
				<g>
					<path style="fill:#EBEBEB;" d="M336.175,273.668l19.021,178.915c0.39,3.668,3.484,6.45,7.172,6.45h92.663l8.622-185.365
						H336.175z"/>
				</g>
				<g>
					
						<ellipse transform="matrix(0.2104 -0.9776 0.9776 0.2104 -92.3446 788.2112)" style="fill:#E0E0E0;" cx="441.795" cy="451.274" rx="31.781" ry="31.781"/>
				</g>
			</g>
			<g>
				<g>
					<path style="fill:#E0E0E0;" d="M469.688,278.288c0,0.144-31.085,0.26-69.421,0.26c-38.349,0-69.427-0.116-69.427-0.26
						c0-0.144,31.078-0.26,69.427-0.26C438.603,278.028,469.688,278.145,469.688,278.288z"/>
				</g>
			</g>
			<g>
				<g>
					<path style="fill:#E0E0E0;" d="M473.69,260.619c0,0.144-32.048,0.26-71.572,0.26c-39.538,0-71.579-0.117-71.579-0.26
						s32.041-0.26,71.579-0.26C441.642,260.359,473.69,260.475,473.69,260.619z"/>
				</g>
			</g>
			<g>
				
					<ellipse transform="matrix(0.1995 -0.9799 0.9799 0.1995 -88.5394 794.1694)" style="fill:#EBEBEB;" cx="441.795" cy="451.274" rx="21.873" ry="21.873"/>
			</g>
		</g>
		<g>
			<g>
				<path style="fill:#F5F5F5;" d="M404.736,337.941c0,0,7.772,2.268,6.288,11.081c-1.484,8.813-6.288,10.097-6.288,10.097
					l10.855,4.424l10.845-2.169l4.338-3.882c0,0-6.501-3.765-6.736-11.074c-0.234-7.309,2.908-7.983,4.23-9.174
					c1.322-1.191-7.426-3.041-7.426-3.041l-7.649-0.799L404.736,337.941z"/>
			</g>
			<g>
				<path style="fill:#E0E0E0;" d="M403.545,338.382c1.619-5.744,7.991-8.944,13.521-9.002c5.53-0.058,11.811,3.077,13.078,8.202
					c-2.95-1.128-6.666,0.639-7.652,3.639c-0.513-1.421-1.85-2.51-3.345-2.723c-1.495-0.214-3.084,0.457-3.974,1.677
					C412.08,337.41,407.326,336.677,403.545,338.382"/>
			</g>
			<g>
				<g>
					<path style="fill:#E0E0E0;" d="M419.447,323.993c0.034,0.08-0.453,0.279-1.012,0.855c-0.562,0.563-1.148,1.547-1.377,2.749
						c-0.227,1.209-0.137,2.354-0.078,3.179c0.065,0.827,0.101,1.348,0.027,1.36c-0.068,0.011-0.231-0.483-0.392-1.312
						c-0.152-0.824-0.312-2.015-0.068-3.325c0.249-1.315,0.956-2.378,1.64-2.922C418.873,324.017,419.436,323.939,419.447,323.993z"
						/>
				</g>
			</g>
			<g>
				<g>
					<path style="fill:#E0E0E0;" d="M414.779,351.233c-0.144,0-0.26-1.105-0.26-2.467c0-1.363,0.117-2.467,0.26-2.467
						s0.26,1.104,0.26,2.467C415.039,350.128,414.923,351.233,414.779,351.233z"/>
				</g>
			</g>
			<g>
				<g>
					<path style="fill:#E0E0E0;" d="M419.582,350.772c-0.144,0-0.26-1.002-0.26-2.237c0-1.236,0.117-2.237,0.26-2.237
						s0.26,1.001,0.26,2.237C419.842,349.77,419.726,350.772,419.582,350.772z"/>
				</g>
			</g>
			<g>
				<path style="fill:#E0E0E0;" d="M404.12,357.878c0,0,1.974,9.672,13.949,9.277c11.975-0.395,13.357-9.935,13.357-9.935
					s-1.382,2.763-5.79,0c0,0-4.654,5.73-9.804-0.395C415.832,356.825,410.436,361.628,404.12,357.878z"/>
			</g>
		</g>
	</g>
	<g>
		<path style="fill:#E0E0E0;" d="M299.958,227.619c1.555-2.601,3.383-5.263,5.741-7.075c-6.101-3.515-12.202-7.031-18.304-10.546
			c-0.959-0.552-1.95-1.135-2.574-2.048c-0.624-0.914-0.76-2.262-0.007-3.072c0.712-0.766,1.899-0.792,2.942-0.72
			c3.573,0.247,7.109,1.009,10.467,2.254c-1.465-2.284-2.929-4.568-4.394-6.853c-0.61-0.952-1.228-2.189-0.614-3.139
			c0.621-0.962,2.045-0.89,3.144-0.571c4.658,1.352,8.479,5.275,9.709,9.966c-0.194-5.076,0.342-10.18,1.586-15.105
			c0.353-1.395,0.897-2.94,2.21-3.53c1.32-0.594,2.941,0.09,3.844,1.221c0.904,1.131,1.245,2.602,1.498,4.028
			c1.532,8.632,0.707,17.665-2.32,25.891c3.664,0.258,7.279,2.255,10.417,4.374c11.597,7.833,21.573,18.056,29.121,29.841
			c0,0,15.202,25.649-3.935,40.071c-6.117,4.609-12.765,4.017-20.424,4.055c-7.659,0.038-15.77,1.738-23.158-0.281
			c-5.901-1.612-12.164-3.5-16.088-8.194c-5.1-6.101-4.697-15.02-3.212-22.832C288.133,252.064,293.015,239.227,299.958,227.619z"/>
	</g>
	<g>
		<g>
			<g>
				<g>
					<polygon style="fill:#EBEBEB;" points="159.107,274.703 158.849,290.908 25.479,290.908 25.479,274.703 					"/>
				</g>
				<g>
					<path style="fill:#EBEBEB;" d="M153.302,286.76l-17.68,166.306c-0.362,3.409-3.238,5.996-6.667,5.996H42.823L34.809,286.76
						H153.302z"/>
				</g>
				<g>
					<circle style="fill:#E0E0E0;" cx="55.126" cy="451.848" r="29.541"/>
				</g>
			</g>
			<g>
				<g>
					<path style="fill:#E0E0E0;" d="M29.199,291.054c0-0.144,28.894-0.26,64.528-0.26c35.646,0,64.534,0.117,64.534,0.26
						c0,0.144-28.888,0.26-64.534,0.26C58.093,291.315,29.199,291.198,29.199,291.054z"/>
				</g>
			</g>
			<g>
				
					<ellipse transform="matrix(0.9723 -0.2338 0.2338 0.9723 -104.1341 25.419)" style="fill:#EBEBEB;" cx="55.126" cy="451.848" rx="20.331" ry="20.331"/>
			</g>
		</g>
		<g>
			<polygon style="fill:#EBEBEB;" points="59.142,266.363 69.37,252.725 119.376,252.725 132.787,266.363 			"/>
		</g>
		<g>
			<g>
				<polygon style="fill:#E0E0E0;" points="75.823,377.001 75.823,335.103 81.629,327.784 81.629,323.493 98.792,323.493 
					98.792,328.288 104.471,333.967 104.471,377.001 				"/>
			</g>
			<g>
				<rect x="78.073" y="344.039" style="fill:#FFFFFF;" width="14.315" height="20.535"/>
			</g>
			<g>
				<g>
					<path style="fill:#F5F5F5;" d="M95.44,377.001c-0.018,0-0.036-0.173-0.052-0.503c-0.013-0.39-0.029-0.866-0.049-1.442
						c-0.021-1.332-0.049-3.124-0.083-5.302c-0.047-4.477-0.076-10.661-0.076-17.492c0.028-6.58,0.053-12.553,0.072-17.024l0-0.045
						l0.019-0.037c1.04-2.077,1.895-3.785,2.528-5.048c0.286-0.546,0.521-0.995,0.712-1.361c0.168-0.309,0.265-0.467,0.281-0.459
						c0.017,0.008-0.047,0.182-0.184,0.506c-0.167,0.377-0.372,0.841-0.622,1.405c-0.595,1.282-1.399,3.014-2.377,5.122l0.019-0.082
						c0.019,4.471,0.044,10.444,0.072,17.024c0,6.831-0.029,13.015-0.076,17.492c-0.034,2.178-0.062,3.97-0.083,5.302
						c-0.02,0.576-0.036,1.052-0.049,1.442C95.475,376.828,95.458,377.001,95.44,377.001z"/>
				</g>
			</g>
			<g>
				<g>
					<path style="fill:#F5F5F5;" d="M95.205,335.238c0,0.144-4.413,0.26-9.856,0.26c-5.445,0-9.857-0.117-9.857-0.26
						s4.412-0.26,9.857-0.26C90.792,334.978,95.205,335.095,95.205,335.238z"/>
				</g>
			</g>
			<g>
				<g>
					<path style="fill:#F5F5F5;" d="M98.792,327.611c0,0.144-3.955,0.26-8.833,0.26c-4.88,0-8.834-0.117-8.834-0.26
						s3.954-0.26,8.834-0.26C94.836,327.351,98.792,327.467,98.792,327.611z"/>
				</g>
			</g>
		</g>
		<g>
			<polygon style="fill:#EBEBEB;" points="20.46,277.063 26.796,262.308 157.313,263.024 164.256,277.063 			"/>
		</g>
		<g>
			<g>
				<path style="fill:#E0E0E0;" d="M24.24,277.064c0-0.144,31.346-0.26,70.005-0.26c38.672,0,70.012,0.117,70.012,0.26
					s-31.34,0.26-70.012,0.26C55.586,277.324,24.24,277.207,24.24,277.064z"/>
			</g>
		</g>
		<g>
			<g>
				<path style="fill:#E0E0E0;" d="M157.312,263.024c-0.001,0.144-29.209,0.1-65.229-0.098c-36.033-0.198-65.234-0.475-65.233-0.619
					c0.001-0.144,29.202-0.1,65.236,0.098C128.106,262.603,157.313,262.88,157.312,263.024z"/>
			</g>
		</g>
	</g>
	<g>
		<g>
			<g>
				<rect x="350.765" y="137.3" style="fill:#EBEBEB;" width="48.653" height="12.871"/>
			</g>
		</g>
		<g>
			<g>
				<g>
					<path style="fill:#E0E0E0;" d="M378.845,163.728c-0.005-0.005-0.01-0.084-0.015-0.234c-0.004-0.172-0.009-0.389-0.016-0.66
						c-0.009-0.606-0.021-1.45-0.036-2.533c-0.02-2.222-0.048-5.416-0.083-9.444l0.151,0.151
						c-11.109,0.022-28.776,0.058-48.65,0.097c0.11-0.11-0.25,0.247,0.245-0.247v0.003v0.007v0.013v0.026v0.052v0.104v0.207l0,0.414
						v0.825c0,0.549,0,1.096,0,1.642c0,1.091-0.001,2.174-0.001,3.248c-0.001,2.148-0.003,4.261-0.004,6.331l-0.242-0.242
						c13.854,0.044,25.977,0.083,34.671,0.11c4.331,0.029,7.806,0.053,10.234,0.069c1.181,0.014,2.105,0.024,2.767,0.032
						c0.298,0.007,0.536,0.012,0.724,0.016C378.753,163.718,378.84,163.723,378.845,163.728c0.005,0.005-0.071,0.01-0.225,0.016
						c-0.18,0.004-0.408,0.009-0.694,0.015c-0.649,0.008-1.556,0.018-2.715,0.032c-2.414,0.016-5.871,0.04-10.178,0.069
						c-8.737,0.028-20.919,0.066-34.84,0.11l-0.242,0.001l0-0.243c-0.001-2.07-0.003-4.183-0.004-6.331
						c0-1.074-0.001-2.157-0.001-3.248c0-0.545,0-1.093,0-1.642l0-0.825v-0.414v-0.207v-0.104v-0.052v-0.026v-0.013v-0.007v-0.003
						c0.496-0.496,0.139-0.138,0.251-0.248c19.874,0.04,37.541,0.075,48.65,0.097l0.152,0l-0.001,0.151
						c-0.036,4.066-0.064,7.29-0.083,9.534c-0.016,1.068-0.028,1.902-0.037,2.499c-0.006,0.26-0.012,0.468-0.016,0.634
						C378.855,163.664,378.85,163.733,378.845,163.728z"/>
				</g>
			</g>
		</g>
	</g>
	<g>
		<g>
			<g>
				<rect x="68.359" y="30.9" style="fill:#EBEBEB;" width="48.653" height="12.871"/>
			</g>
		</g>
		<g>
			<g>
				<g>
					<path style="fill:#E0E0E0;" d="M96.439,57.328c-0.005-0.005-0.01-0.084-0.015-0.234c-0.004-0.172-0.009-0.389-0.016-0.66
						c-0.009-0.606-0.021-1.45-0.036-2.533c-0.02-2.222-0.048-5.416-0.083-9.444l0.151,0.151
						c-11.109,0.022-28.776,0.057-48.65,0.097c0.11-0.11-0.25,0.247,0.245-0.248v0.003v0.007v0.013v0.026v0.052v0.104v0.207l0,0.414
						v0.825c0,0.549,0,1.097,0,1.642c0,1.091-0.001,2.174-0.001,3.248c-0.001,2.148-0.003,4.261-0.004,6.331l-0.242-0.242
						c13.854,0.044,25.976,0.083,34.671,0.11c4.331,0.029,7.806,0.053,10.234,0.069c1.181,0.014,2.105,0.024,2.767,0.032
						c0.298,0.006,0.536,0.012,0.724,0.016C96.347,57.318,96.434,57.323,96.439,57.328c0.005,0.005-0.071,0.01-0.225,0.016
						c-0.18,0.004-0.408,0.009-0.694,0.015c-0.649,0.008-1.556,0.018-2.715,0.032c-2.414,0.016-5.871,0.04-10.178,0.069
						c-8.737,0.028-20.919,0.066-34.84,0.11l-0.242,0.001l0-0.243c-0.001-2.07-0.003-4.183-0.004-6.331
						c0-1.074-0.001-2.157-0.001-3.248c0-0.545,0-1.093,0-1.642l0-0.825v-0.414v-0.207v-0.104v-0.052V44.48v-0.013v-0.007v-0.003
						c0.496-0.496,0.139-0.138,0.251-0.248c19.874,0.04,37.541,0.075,48.65,0.097l0.152,0l-0.001,0.151
						c-0.036,4.066-0.064,7.29-0.083,9.533c-0.016,1.068-0.028,1.902-0.037,2.499c-0.006,0.26-0.012,0.468-0.016,0.634
						C96.449,57.264,96.444,57.333,96.439,57.328z"/>
				</g>
			</g>
		</g>
	</g>
	<g>
		<g>
			<g>
				<g>
					<path style="fill:#E0E0E0;" d="M443.082,57.354c-0.005-0.005-0.01-0.084-0.015-0.234c-0.004-0.172-0.009-0.389-0.016-0.66
						c-0.009-0.606-0.021-1.45-0.037-2.533c-0.02-2.222-0.048-5.416-0.083-9.444l0.151,0.151
						c-11.109,0.022-28.776,0.057-48.65,0.097c0.11-0.11-0.25,0.247,0.245-0.248v0.003v0.007v0.013v0.026v0.052v0.104l0,0.207v0.414
						v0.825c0,0.549,0,1.097,0,1.642c0,1.091-0.001,2.174-0.001,3.248c-0.001,2.148-0.003,4.261-0.004,6.331l-0.242-0.242
						c13.854,0.044,25.977,0.083,34.671,0.11c4.331,0.029,7.806,0.053,10.234,0.069c1.181,0.014,2.105,0.024,2.767,0.032
						c0.298,0.006,0.536,0.011,0.724,0.015C442.99,57.344,443.076,57.349,443.082,57.354c0.005,0.005-0.071,0.011-0.225,0.016
						c-0.18,0.004-0.408,0.009-0.694,0.016c-0.649,0.008-1.556,0.018-2.715,0.032c-2.414,0.016-5.871,0.04-10.178,0.069
						c-8.737,0.028-20.919,0.066-34.84,0.11l-0.242,0.001l0-0.243c-0.001-2.07-0.003-4.183-0.004-6.331
						c0-1.074-0.001-2.157-0.001-3.248c0-0.545,0-1.093,0-1.642l0-0.825v-0.414v-0.207v-0.104v-0.052v-0.026v-0.013v-0.007v-0.003
						c0.496-0.496,0.139-0.138,0.251-0.248c19.874,0.04,37.541,0.075,48.65,0.097l0.152,0l-0.001,0.151
						c-0.036,4.066-0.064,7.291-0.083,9.534c-0.016,1.068-0.028,1.902-0.037,2.499c-0.007,0.26-0.012,0.468-0.016,0.634
						C443.092,57.29,443.087,57.359,443.082,57.354z"/>
				</g>
			</g>
		</g>
		<g>
			<g>
				<g>
					<path style="fill:#E0E0E0;" d="M449.678,44.483c-0.006-0.006-0.012-0.089-0.019-0.245c-0.005-0.185-0.012-0.409-0.019-0.682
						c-0.011-0.633-0.026-1.494-0.044-2.581c-0.023-2.257-0.056-5.444-0.096-9.363l0.178,0.178
						c-7.573,0.018-17.875,0.043-29.23,0.07c-0.223,0.221,0.299-0.302,0.246-0.247v0.003v0.007v0.013v0.027v0.053v0.106l0,0.212
						v0.422l0,0.841c0,0.56,0,1.116-0.001,1.669c-0.001,1.106-0.001,2.199-0.002,3.276c-0.003,2.153-0.006,4.241-0.009,6.241
						l-0.236-0.236c8.439,0.045,15.704,0.084,20.911,0.112c2.568,0.028,4.626,0.049,6.091,0.065c0.684,0.012,1.229,0.022,1.643,0.03
						C449.468,44.464,449.669,44.473,449.678,44.483c0.01,0.01-0.172,0.019-0.531,0.029c-0.401,0.007-0.93,0.017-1.594,0.03
						c-1.452,0.016-3.492,0.038-6.037,0.065c-5.247,0.028-12.567,0.067-21.07,0.112l-0.236,0.001l0-0.237
						c-0.003-2-0.006-4.088-0.009-6.241c-0.001-1.077-0.002-2.17-0.002-3.276c0-0.553,0-1.11-0.001-1.669l0-0.841v-0.422v-0.212
						v-0.106v-0.053v-0.027v-0.013v-0.007v-0.003c-0.054,0.052,0.47-0.471,0.25-0.249c11.355,0.027,21.657,0.052,29.23,0.07l0.18,0
						l-0.002,0.178c-0.04,3.965-0.073,7.189-0.096,9.472c-0.019,1.07-0.034,1.917-0.044,2.541
						C449.703,44.2,449.691,44.496,449.678,44.483z"/>
				</g>
			</g>
		</g>
	</g>
	<g>
		<g>
			<g>
				<g>
					<path style="fill:#E0E0E0;" d="M258.266,371.04c-0.005-0.005-0.01-0.084-0.015-0.234c-0.004-0.172-0.009-0.389-0.016-0.66
						c-0.009-0.606-0.021-1.45-0.037-2.533c-0.02-2.222-0.048-5.416-0.083-9.444l0.151,0.151
						c-11.109,0.022-28.776,0.057-48.65,0.097c0.11-0.11-0.25,0.247,0.245-0.248v0.003v0.007v0.013v0.026v0.052v0.103l0,0.207v0.414
						v0.825c0,0.549,0,1.097,0,1.642c0,1.091-0.001,2.174-0.001,3.248c-0.001,2.148-0.003,4.261-0.004,6.331l-0.242-0.242
						c13.854,0.044,25.977,0.083,34.671,0.11c4.331,0.029,7.806,0.053,10.234,0.069c1.181,0.014,2.106,0.024,2.767,0.032
						c0.298,0.006,0.536,0.012,0.724,0.016C258.175,371.03,258.261,371.035,258.266,371.04c0.005,0.005-0.071,0.01-0.225,0.016
						c-0.18,0.004-0.408,0.009-0.694,0.016c-0.649,0.008-1.557,0.018-2.715,0.032c-2.414,0.016-5.871,0.04-10.178,0.069
						c-8.737,0.028-20.919,0.066-34.84,0.11l-0.242,0.001l0-0.243c-0.001-2.07-0.003-4.183-0.004-6.331
						c0-1.074-0.001-2.157-0.001-3.248c0-0.545,0-1.093,0-1.642l0-0.825v-0.414v-0.207v-0.103v-0.052v-0.026v-0.013v-0.007v-0.003
						c0.496-0.496,0.139-0.138,0.251-0.248c19.874,0.04,37.541,0.075,48.65,0.097l0.152,0l-0.001,0.151
						c-0.036,4.066-0.064,7.29-0.083,9.534c-0.016,1.068-0.028,1.902-0.037,2.499c-0.007,0.26-0.012,0.468-0.016,0.634
						C258.276,370.977,258.272,371.045,258.266,371.04z"/>
				</g>
			</g>
		</g>
		<g>
			<g>
				<g>
					<path style="fill:#E0E0E0;" d="M264.863,358.169c-0.006-0.006-0.012-0.089-0.019-0.245c-0.005-0.185-0.012-0.409-0.019-0.682
						c-0.011-0.633-0.026-1.494-0.044-2.581c-0.023-2.257-0.056-5.444-0.096-9.363l0.178,0.178
						c-7.573,0.018-17.875,0.043-29.23,0.07c-0.223,0.221,0.299-0.302,0.246-0.247v0.003v0.007v0.013v0.026v0.053v0.106l0,0.211
						v0.422l0,0.841c0,0.56,0,1.116-0.001,1.669c-0.001,1.106-0.002,2.199-0.002,3.276c-0.003,2.153-0.006,4.241-0.009,6.241
						l-0.236-0.236c8.439,0.045,15.704,0.084,20.911,0.112c2.568,0.027,4.626,0.049,6.091,0.065c0.684,0.012,1.229,0.022,1.643,0.03
						C264.653,358.15,264.853,358.16,264.863,358.169c0.01,0.01-0.172,0.019-0.531,0.029c-0.401,0.007-0.93,0.017-1.594,0.03
						c-1.452,0.016-3.492,0.038-6.038,0.065c-5.247,0.028-12.567,0.067-21.07,0.112l-0.236,0.001l0-0.237
						c-0.003-2-0.006-4.088-0.009-6.241c-0.001-1.077-0.002-2.17-0.002-3.276c0-0.553,0-1.11-0.001-1.669l0-0.841v-0.422v-0.211
						v-0.106v-0.053v-0.026v-0.013v-0.007V345.3c-0.054,0.052,0.47-0.471,0.25-0.249c11.355,0.027,21.657,0.052,29.23,0.07l0.18,0
						l-0.002,0.178c-0.04,3.965-0.073,7.189-0.096,9.472c-0.019,1.07-0.034,1.917-0.044,2.541
						C264.888,357.886,264.875,358.182,264.863,358.169z"/>
				</g>
			</g>
		</g>
	</g>
	<g>
		<g>
			<g>
				<g>
					<path style="fill:#E0E0E0;" d="M83.579,165.147c-0.005-0.005-0.01-0.084-0.015-0.234c-0.004-0.172-0.009-0.389-0.016-0.66
						c-0.009-0.606-0.021-1.45-0.037-2.533c-0.02-2.222-0.048-5.416-0.083-9.444l0.151,0.151
						c-11.109,0.022-28.776,0.057-48.65,0.097c0.11-0.11-0.25,0.247,0.245-0.248v0.003v0.007v0.013v0.026v0.052v0.103l0,0.207v0.414
						v0.825c0,0.549,0,1.097,0,1.642c0,1.091-0.001,2.174-0.001,3.248c-0.001,2.148-0.003,4.261-0.004,6.331l-0.242-0.242
						c13.854,0.044,25.977,0.083,34.671,0.11c4.331,0.029,7.806,0.053,10.234,0.069c1.181,0.014,2.105,0.024,2.767,0.032
						c0.298,0.006,0.536,0.012,0.724,0.016C83.487,165.137,83.574,165.142,83.579,165.147c0.005,0.005-0.071,0.01-0.225,0.016
						c-0.18,0.004-0.408,0.009-0.694,0.016c-0.649,0.008-1.557,0.018-2.715,0.032c-2.414,0.016-5.871,0.04-10.178,0.069
						c-8.737,0.028-20.919,0.066-34.84,0.11l-0.242,0.001l0-0.243c-0.001-2.07-0.003-4.183-0.004-6.331
						c0-1.074-0.001-2.157-0.001-3.248c0-0.545,0-1.093,0-1.642l0-0.825v-0.414v-0.207v-0.103v-0.052v-0.026v-0.013v-0.007v-0.003
						c0.496-0.496,0.139-0.137,0.251-0.248c19.874,0.04,37.541,0.075,48.65,0.097l0.152,0l-0.001,0.151
						c-0.036,4.066-0.064,7.29-0.084,9.534c-0.016,1.068-0.028,1.901-0.036,2.499c-0.007,0.26-0.012,0.468-0.016,0.634
						C83.589,165.083,83.584,165.152,83.579,165.147z"/>
				</g>
			</g>
		</g>
	</g>
	<g>
		<g>
			<g>
				<g>
					<path style="fill:#E0E0E0;" d="M308.674,74.022c-0.005-0.005-0.01-0.084-0.015-0.234c-0.004-0.172-0.009-0.389-0.016-0.66
						c-0.009-0.606-0.021-1.45-0.037-2.533c-0.02-2.222-0.048-5.416-0.083-9.444l0.151,0.151
						c-11.109,0.022-28.776,0.057-48.65,0.097c0.11-0.11-0.25,0.247,0.245-0.248v0.003v0.007v0.013V61.2v0.052v0.104l0,0.207v0.414
						v0.825c0,0.549,0,1.097,0,1.642c0,1.091-0.001,2.174-0.001,3.248c-0.001,2.148-0.003,4.261-0.004,6.331l-0.242-0.242
						c13.854,0.044,25.977,0.083,34.671,0.11c4.331,0.029,7.806,0.053,10.234,0.069c1.181,0.014,2.105,0.024,2.767,0.032
						c0.298,0.006,0.536,0.011,0.724,0.015C308.583,74.011,308.669,74.016,308.674,74.022c0.005,0.005-0.071,0.01-0.225,0.016
						c-0.18,0.004-0.408,0.009-0.694,0.016c-0.649,0.008-1.556,0.018-2.715,0.032c-2.414,0.016-5.871,0.04-10.178,0.069
						c-8.737,0.028-20.919,0.066-34.84,0.11l-0.242,0.001l0-0.243c-0.001-2.07-0.003-4.183-0.004-6.331
						c0-1.074-0.001-2.157-0.001-3.248c0-0.545,0-1.093,0-1.642l0-0.825v-0.414v-0.207v-0.104V61.2v-0.026v-0.013v-0.007v-0.003
						c0.496-0.496,0.139-0.138,0.251-0.248c19.874,0.04,37.541,0.075,48.65,0.097l0.152,0l-0.001,0.151
						c-0.036,4.066-0.064,7.291-0.083,9.534c-0.016,1.068-0.028,1.901-0.037,2.499c-0.007,0.26-0.012,0.468-0.016,0.634
						C308.684,73.958,308.68,74.027,308.674,74.022z"/>
				</g>
			</g>
		</g>
	</g>
</g>
<g id="Background_Simple" style="display:none;">
	<g style="display:inline;">
		<path style="fill:#F5F5F5;" d="M435.384,90.104l-2.434-4.01c-20.516-33.808-57.609-54.188-96.717-51.715
			c-5.027,0.318-10.033,0.999-14.971,2.056c-35.557,7.611-66.496,34.5-79.321,68.937c-7.542,20.253-9.649,43.571-23.962,59.647
			c-18.627,20.922-50.251,21.579-78.055,20.712c-27.804-0.867-59.449-0.128-77.985,20.877
			c-11.609,13.154-15.299,31.861-14.362,49.478c2.478,46.641,34.979,88.345,76.311,109.074
			c41.332,20.729,89.996,22.586,135.232,13.467c63.37-12.774,123.634-47.855,159.857-102.038
			C455.199,222.404,464.367,148.585,435.384,90.104z"/>
	</g>
</g>
<g id="Floor">
	<g>
		<g>
			<path style="fill:#263238;" d="M488.415,483.18c0,0.144-106.751,0.26-238.404,0.26c-131.699,0-238.427-0.117-238.427-0.26
				s106.728-0.26,238.427-0.26C381.665,482.919,488.415,483.036,488.415,483.18z"/>
		</g>
	</g>
</g>
<g id="Trash_can">
	<g>
		<g>
			<path style="fill:#263238;" d="M384.42,250.474c-1.504-2.514-3.27-5.088-5.55-6.84c5.898-3.399,11.797-6.797,17.695-10.196
				c0.927-0.534,1.885-1.097,2.488-1.98c0.603-0.883,0.735-2.186,0.007-2.97c-0.688-0.741-1.836-0.766-2.845-0.696
				c-3.454,0.239-6.873,0.975-10.119,2.179c1.416-2.208,2.832-4.417,4.248-6.625c0.59-0.92,1.187-2.117,0.594-3.035
				c-0.6-0.93-1.977-0.861-3.04-0.552c-4.503,1.307-8.197,5.099-9.386,9.635c0.188-4.907-0.33-9.841-1.534-14.603
				c-0.341-1.349-0.868-2.842-2.136-3.413c-1.276-0.574-2.843,0.087-3.716,1.181c-0.874,1.094-1.203,2.515-1.448,3.893
				c-1.481,8.345-0.683,17.077,2.242,25.03c-3.542,0.249-7.037,2.18-10.07,4.229c-11.211,7.573-20.855,17.455-28.152,28.848
				c0,0-14.696,24.796,3.805,38.738c5.913,4.456,12.919,7.429,20.323,7.466c7.404,0.037,14.667-1.866,21.809-3.817
				c5.705-1.559,11.76-3.384,15.553-7.921c4.93-5.898,4.541-14.521,3.105-22.073C395.851,274.106,391.132,261.696,384.42,250.474z"
				/>
		</g>
		<g>
			<g>
				<polygon style="fill:#FF725E;" points="268.316,261.518 268.594,278.952 412.076,278.952 412.076,261.518 				"/>
			</g>
			<g>
				<path style="fill:#FF725E;" d="M273.099,274.238l19.021,178.915c0.39,3.668,3.484,6.45,7.172,6.45h92.662l8.622-185.365H273.099
					z"/>
			</g>
			<g>
				
					<ellipse transform="matrix(0.213 -0.977 0.977 0.213 -142.5305 727.2324)" style="fill:#263238;" cx="380.181" cy="452.095" rx="31.781" ry="31.781"/>
			</g>
			<g>
				<g>
					<polygon style="fill:#FF725E;" points="439.134,128.519 395.154,267.055 410.218,262.478 448.885,145.493 					"/>
				</g>
				<g>
					<polygon style="fill:#FF725E;" points="438.362,177.331 445.335,185.086 429.181,230.474 419.887,233.224 					"/>
				</g>
			</g>
		</g>
		<g>
			<g>
				<g>
					<g>
						<path style="fill:#FFFFFF;" d="M313.518,348.663c0,0-3.885,3.863-2.101,8.005c1.785,4.142,7.651,12.055,7.651,12.055
							s0.871-6.343,6.211-13.379l3.493,1.924l-3.763-14.729l-14.153,4.191L313.518,348.663z"/>
					</g>
				</g>
				<g>
					<g>
						<path style="fill:#FFFFFF;" d="M320.799,371.812c0,0,1.629,3.091,5.595,3.768c3.966,0.678,12.667,0.177,12.667,0.177
							l-0.159-13.125l-15.235,0.184C323.667,362.816,321.069,366.146,320.799,371.812z"/>
					</g>
				</g>
			</g>
			<g>
				<g>
					<g>
						<path style="fill:#FFFFFF;" d="M356.889,328.39c0,0-1.206-5.345-5.663-6.035c-4.457-0.691-14.278,0.069-14.278,0.069
							s4.909,4.11,8.028,12.374l-3.486,1.935l14.475,4.645l3.977-14.215L356.889,328.39z"/>
					</g>
				</g>
				<g>
					<g>
						<path style="fill:#FFFFFF;" d="M333.413,322.247c0,0-3.484-0.264-6.167,2.734c-2.683,2.998-6.885,10.634-6.885,10.634
							l11.2,6.845l7.945-13.001C339.506,329.459,338.068,325.488,333.413,322.247z"/>
					</g>
				</g>
			</g>
			<g>
				<g>
					<g>
						<path style="fill:#FFFFFF;" d="M354.941,375.64c0,0,5.326,1.286,7.919-2.403c2.593-3.69,6.262-12.831,6.262-12.831
							s-5.859,2.58-14.65,1.716l-0.19-3.983l-10.576,10.92l10.983,9.862L354.941,375.64z"/>
					</g>
				</g>
				<g>
					<g>
						<path style="fill:#FFFFFF;" d="M370.848,357.315c0,0,1.78-3.007,0.28-6.74c-1.5-3.733-6.484-10.883-6.484-10.883
							l-11.097,7.009l8.136,12.882C361.682,359.583,365.88,360.052,370.848,357.315z"/>
					</g>
				</g>
			</g>
		</g>
		<g>
			<circle style="fill:#455A64;" cx="380.192" cy="452.931" r="17.715"/>
		</g>
		<g>
			<g>
				<path style="fill:#263238;" d="M407.069,278.952c0,0.144-31.001,0.26-69.234,0.26c-38.246,0-69.241-0.117-69.241-0.26
					s30.995-0.26,69.241-0.26C376.068,278.691,407.069,278.808,407.069,278.952z"/>
			</g>
		</g>
		<g>
			<g>
				<path style="fill:#263238;" d="M411.072,261.518c0,0.144-31.96,0.26-71.375,0.26c-39.429,0-71.382-0.117-71.382-0.26
					s31.953-0.26,71.382-0.26C379.112,261.258,411.072,261.374,411.072,261.518z"/>
			</g>
		</g>
		<g>
			<g>
				<path style="fill:#263238;" d="M412.837,254.646c-0.137-0.045,7.748-24.271,17.608-54.102
					c9.864-29.842,17.968-53.989,18.105-53.944c0.137,0.045-7.746,24.266-17.61,54.107
					C421.079,230.539,412.973,254.691,412.837,254.646z"/>
			</g>
		</g>
		<g style="opacity:0.3;">
			<g>
				<path d="M400.81,278.952c-18.066,1.197-36.704,4.246-54.77,5.443c-23.695,1.57-48.258,3.019-70.447-5.443H400.81z"/>
			</g>
		</g>
	</g>
</g>
<g id="Plant">
	<g>
		<g>
			<g>
				<g>
					<path style="fill:#455A64;" d="M235.674,434.159c2.413,0.625,4.402,2.452,5.6,4.638c1.198,2.186,1.67,4.705,1.778,7.195
						c0.207,4.818-1.732,10.018-4.033,14.256c-4.532-2.852-6.403-8.777-7.163-11.842
						C230.653,443.561,231.424,434.076,235.674,434.159"/>
				</g>
			</g>
		</g>
		<g>
			<g>
				<g>
					<path style="fill:#455A64;" d="M244.879,467.331c-1.058-2.575-0.406-5.685,1.36-7.837c1.766-2.152,4.514-3.377,7.289-3.599
						c1.283-0.102,2.712,0.052,3.602,0.982c0.832,0.869,0.97,2.243,0.585,3.384c-0.385,1.14-1.215,2.078-2.122,2.868
						C252.478,465.839,248.968,467.889,244.879,467.331"/>
				</g>
			</g>
		</g>
		<g>
			<g>
				<g>
					<g>
						<path style="fill:#263238;" d="M242.048,482.648c-0.025-0.002-0.024-0.355-0.011-0.994c0.018-0.703,0.041-1.612,0.069-2.704
							c0.095-2.266,0.167-5.501,1.394-8.824c1.205-3.311,3.21-5.926,5.02-7.351c0.896-0.725,1.705-1.2,2.287-1.473
							c0.285-0.148,0.524-0.226,0.679-0.291c0.158-0.06,0.243-0.086,0.247-0.075c0.04,0.073-1.329,0.548-3.054,2.028
							c-1.736,1.448-3.665,4.027-4.851,7.282c-1.204,3.254-1.317,6.451-1.475,8.715c-0.068,1.139-0.124,2.063-0.18,2.7
							C242.117,482.298,242.071,482.649,242.048,482.648z"/>
					</g>
				</g>
			</g>
		</g>
		<g>
			<g>
				<g>
					<g>
						<path style="fill:#263238;" d="M235.726,441.433c0.012-0.002,0.051,0.141,0.115,0.417c0.068,0.312,0.156,0.713,0.264,1.209
							c0.223,1.051,0.527,2.575,0.886,4.462c0.719,3.773,1.639,9.001,2.524,14.795c0.884,5.796,1.566,11.061,2.006,14.876
							c0.22,1.908,0.386,3.453,0.486,4.523c0.045,0.505,0.081,0.914,0.109,1.232c0.021,0.282,0.026,0.431,0.014,0.432
							c-0.012,0.001-0.041-0.145-0.084-0.424c-0.045-0.316-0.103-0.722-0.174-1.225c-0.147-1.108-0.349-2.637-0.597-4.508
							c-0.503-3.807-1.223-9.062-2.106-14.854c-0.885-5.79-1.766-11.02-2.422-14.803c-0.322-1.86-0.585-3.38-0.776-4.481
							c-0.082-0.501-0.148-0.906-0.199-1.221C235.73,441.583,235.714,441.435,235.726,441.433z"/>
					</g>
				</g>
			</g>
		</g>
		<g>
			<g>
				<g>
					<path style="fill:#455A64;" d="M238.435,471.296c-1.807-5.585-6.48-10.156-12.103-11.839c-1.432-0.428-3.237-0.572-4.176,0.591
						c-0.941,1.165-0.415,2.907,0.338,4.201c3.133,5.384,9.766,8.491,15.908,7.451"/>
				</g>
			</g>
		</g>
		<g>
			<g>
				<g>
					<g>
						<path style="fill:#263238;" d="M227.683,463.845c0.007-0.023,0.327,0.062,0.904,0.236c0.289,0.085,0.642,0.191,1.036,0.359
							c0.393,0.167,0.86,0.318,1.337,0.572c0.483,0.239,1.02,0.489,1.557,0.829c0.556,0.308,1.111,0.699,1.693,1.113
							c1.141,0.858,2.319,1.91,3.383,3.174c1.052,1.274,1.881,2.621,2.513,3.902c0.296,0.651,0.581,1.267,0.774,1.874
							c0.231,0.592,0.373,1.167,0.51,1.689c0.156,0.517,0.208,1.006,0.292,1.425c0.086,0.42,0.116,0.787,0.138,1.088
							c0.05,0.6,0.066,0.931,0.042,0.933c-0.078,0.009-0.149-1.326-0.71-3.382c-0.151-0.511-0.304-1.074-0.544-1.653
							c-0.202-0.593-0.492-1.195-0.791-1.831c-0.638-1.251-1.459-2.568-2.492-3.819c-1.045-1.241-2.196-2.282-3.308-3.141
							c-0.568-0.415-1.108-0.809-1.65-1.123c-0.523-0.346-1.046-0.605-1.516-0.855C228.945,464.275,227.659,463.917,227.683,463.845
							z"/>
					</g>
				</g>
			</g>
		</g>
	</g>
</g>
<g id="Character">
	<g>
		<g>
			<g>
				<g>
					<g>
						<g>
							<g>
								<g>
									<g>
										<g>
											<g>
												<g>
													<g>
														<g>
															<g>
																<g>
																	<path style="fill:#455A64;" d="M167.763,442.408l-1.416,25.98c0,0,25.932,10.164,26.138,14.991l-50.472-0.936
																		l0.544-40.57L167.763,442.408z"/>
																</g>
															</g>
														</g>
													</g>
												</g>
											</g>
										</g>
									</g>
								</g>
							</g>
						</g>
						<g>
							<g>
								<g>
									<g>
										<g>
											<g>
												<g>
													<g>
														<g>
															<g>
																<g>
																	<g>
																		<path style="fill:#E0E0E0;" d="M150.781,465.912c-0.982,0.249-1.677,1.335-1.469,2.326
																			c0.208,0.991,1.306,1.708,2.292,1.476c0.986-0.231,1.861-1.509,1.542-2.471c-0.318-0.961-1.653-1.732-2.555-1.271
																			"/>
																	</g>
																</g>
															</g>
														</g>
													</g>
												</g>
											</g>
										</g>
									</g>
								</g>
							</g>
						</g>
						<g style="opacity:0.6;">
							<g>
								<g>
									<g>
										<g>
											<g>
												<g>
													<g>
														<g>
															<g>
																<g>
																	<path style="fill:#FFFFFF;" d="M142.013,482.444l0.215-4.087l48.311,2.425c0,0,2.229,1.02,1.946,2.598
																		L142.013,482.444z"/>
																</g>
															</g>
														</g>
													</g>
												</g>
											</g>
										</g>
									</g>
								</g>
							</g>
						</g>
						<g>
							<g>
								<g>
									<g>
										<g>
											<g>
												<g>
													<g>
														<g>
															<g>
																<g>
																	<g>
																		<path style="fill:#263238;" d="M167.17,468.147c-0.012,0.246-1.247,0.335-2.474,1.105
																			c-1.248,0.738-1.893,1.794-2.117,1.692c-0.226-0.052,0.168-1.519,1.671-2.425
																			C165.743,467.6,167.228,467.922,167.17,468.147z"/>
																	</g>
																</g>
															</g>
														</g>
													</g>
												</g>
											</g>
										</g>
									</g>
								</g>
							</g>
						</g>
						<g>
							<g>
								<g>
									<g>
										<g>
											<g>
												<g>
													<g>
														<g>
															<g>
																<g>
																	<g>
																		<path style="fill:#263238;" d="M172.424,470.434c0.052,0.24-1.023,0.639-1.88,1.666
																			c-0.886,1.002-1.118,2.125-1.364,2.11c-0.232,0.035-0.376-1.412,0.713-2.668
																			C170.971,470.276,172.423,470.199,172.424,470.434z"/>
																	</g>
																</g>
															</g>
														</g>
													</g>
												</g>
											</g>
										</g>
									</g>
								</g>
							</g>
						</g>
						<g>
							<g>
								<g>
									<g>
										<g>
											<g>
												<g>
													<g>
														<g>
															<g>
																<g>
																	<g>
																		<path style="fill:#263238;" d="M175.313,476.826c-0.225,0.049-0.545-1.189,0.113-2.527
																			c0.649-1.343,1.82-1.854,1.921-1.646c0.135,0.205-0.626,0.915-1.15,2.022
																			C175.648,475.768,175.558,476.806,175.313,476.826z"/>
																	</g>
																</g>
															</g>
														</g>
													</g>
												</g>
											</g>
										</g>
									</g>
								</g>
							</g>
						</g>
						<g>
							<g>
								<g>
									<g>
										<g>
											<g>
												<g>
													<g>
														<g>
															<g>
																<g>
																	<g>
																		<path style="fill:#263238;" d="M166.836,462.19c-0.107,0.223-1.232-0.138-2.627-0.069
																			c-1.396,0.04-2.489,0.488-2.613,0.274c-0.139-0.181,0.936-1.073,2.58-1.131
																			C165.819,461.193,166.961,461.999,166.836,462.19z"/>
																	</g>
																</g>
															</g>
														</g>
													</g>
												</g>
											</g>
										</g>
									</g>
								</g>
							</g>
						</g>
					</g>
				</g>
			</g>
			<g>
				<g>
					<g>
						<g>
							<g>
								<g>
									<g>
										<g>
											<g>
												<g>
													<g>
														<g>
															<g>
																<g>
																	<path style="fill:#455A64;" d="M150.834,442.749l-0.991,26c0,0,26.094,9.739,26.379,14.562l-50.481-0.111
																		l-0.118-40.574L150.834,442.749z"/>
																</g>
															</g>
														</g>
													</g>
												</g>
											</g>
										</g>
									</g>
								</g>
							</g>
						</g>
						<g>
							<g>
								<g>
									<g>
										<g>
											<g>
												<g>
													<g>
														<g>
															<g>
																<g>
																	<g>
																		<path style="fill:#E0E0E0;" d="M134.238,466.527c-0.978,0.265-1.655,1.362-1.431,2.35
																			c0.225,0.988,1.334,1.686,2.317,1.438c0.982-0.247,1.836-1.539,1.502-2.496c-0.333-0.956-1.681-1.705-2.575-1.229
																			"/>
																	</g>
																</g>
															</g>
														</g>
													</g>
												</g>
											</g>
										</g>
									</g>
								</g>
							</g>
						</g>
						<g style="opacity:0.6;">
							<g>
								<g>
									<g>
										<g>
											<g>
												<g>
													<g>
														<g>
															<g>
																<g>
																	<path style="fill:#FFFFFF;" d="M125.741,483.2l0.148-4.09l48.345,1.636c0,0,2.245,0.983,1.988,2.565L125.741,483.2
																		z"/>
																</g>
															</g>
														</g>
													</g>
												</g>
											</g>
										</g>
									</g>
								</g>
							</g>
						</g>
						<g>
							<g>
								<g>
									<g>
										<g>
											<g>
												<g>
													<g>
														<g>
															<g>
																<g>
																	<g>
																		<path style="fill:#263238;" d="M150.661,468.494c-0.008,0.247-1.241,0.355-2.456,1.145
																			c-1.236,0.758-1.863,1.825-2.09,1.727c-0.227-0.049,0.144-1.521,1.631-2.452
																			C149.225,467.97,150.715,468.268,150.661,468.494z"/>
																	</g>
																</g>
															</g>
														</g>
													</g>
												</g>
											</g>
										</g>
									</g>
								</g>
							</g>
						</g>
						<g>
							<g>
								<g>
									<g>
										<g>
											<g>
												<g>
													<g>
														<g>
															<g>
																<g>
																	<g>
																		<path style="fill:#263238;" d="M155.951,470.695c0.056,0.239-1.013,0.656-1.852,1.697
																			c-0.87,1.016-1.084,2.143-1.329,2.132c-0.232,0.038-0.399-1.406,0.669-2.68
																			C154.496,470.56,155.946,470.461,155.951,470.695z"/>
																	</g>
																</g>
															</g>
														</g>
													</g>
												</g>
											</g>
										</g>
									</g>
								</g>
							</g>
						</g>
						<g>
							<g>
								<g>
									<g>
										<g>
											<g>
												<g>
													<g>
														<g>
															<g>
																<g>
																	<g>
																		<path style="fill:#263238;" d="M158.944,477.039c-0.224,0.052-0.564-1.18,0.072-2.529
																			c0.626-1.353,1.79-1.883,1.894-1.678c0.139,0.203-0.611,0.926-1.116,2.041
																			C159.262,475.976,159.189,477.015,158.944,477.039z"/>
																	</g>
																</g>
															</g>
														</g>
													</g>
												</g>
											</g>
										</g>
									</g>
								</g>
							</g>
						</g>
						<g>
							<g>
								<g>
									<g>
										<g>
											<g>
												<g>
													<g>
														<g>
															<g>
																<g>
																	<g>
																		<path style="fill:#263238;" d="M150.23,462.544c-0.104,0.224-1.234-0.118-2.628-0.027
																			c-1.395,0.063-2.481,0.529-2.609,0.317c-0.142-0.179,0.918-1.089,2.561-1.174
																			C149.196,461.563,150.351,462.35,150.23,462.544z"/>
																	</g>
																</g>
															</g>
														</g>
													</g>
												</g>
											</g>
										</g>
									</g>
								</g>
							</g>
						</g>
					</g>
				</g>
			</g>
			<g>
				<g>
					<g>
						<g>
							<g>
								<g>
									<g>
										<g>
											<g>
												<path style="fill:#263238;" d="M105.393,257.046l1.707,20.482l12.15,79.338c0,0-0.198,38.995-0.479,61.021
													c-0.244,19.129,5.494,51.927,5.494,51.927l32.019-2.668l2.271-111.169l1.382-69.328l9.764-32.315L105.393,257.046z"/>
											</g>
										</g>
									</g>
								</g>
							</g>
						</g>
					</g>
				</g>
				<g>
					<path style="fill:#263238;" d="M193.015,360.439l-3.087-99.008c-0.088-2.822-2.373-5.079-5.196-5.133l-34.332-0.65
						c-2.988-0.057-5.432,2.368-5.399,5.357l2.099,188.481c0.029,2.59,1.926,4.78,4.485,5.177l19.134,1.632l20.938-85.333
						C192.668,367.549,193.126,363.996,193.015,360.439z"/>
				</g>
				<g>
					<g>
						<g>
							<g>
								<g>
									<g>
										<g>
											<g>
												<g>
													<path style="fill:#455A64;" d="M159.922,287.478c0.01-0.001,0.027,0.156,0.05,0.462c0.021,0.335,0.05,0.785,0.086,1.36
														c0.064,1.229,0.156,2.985,0.274,5.232c0.249,4.543,0.47,11.124,0.685,19.256c0.383,16.266,0.442,38.751-0.32,63.565
														c-0.717,24.823-1.922,47.27-2.817,63.513c-0.467,8.096-0.845,14.659-1.109,19.233c-0.142,2.245-0.252,4-0.33,5.227
														c-0.042,0.574-0.076,1.024-0.101,1.359c-0.026,0.306-0.045,0.462-0.055,0.462c-0.01,0-0.012-0.158-0.006-0.465
														c0.01-0.335,0.024-0.786,0.041-1.362c0.051-1.229,0.124-2.986,0.217-5.233c0.219-4.576,0.532-11.142,0.919-19.243
														c0.786-16.248,1.924-38.694,2.641-63.508c0.762-24.805,0.77-47.278,0.495-63.539c-0.16-8.13-0.317-14.71-0.494-19.256
														c-0.069-2.248-0.123-4.006-0.161-5.235c-0.011-0.576-0.02-1.027-0.027-1.363
														C159.908,287.636,159.911,287.478,159.922,287.478z"/>
												</g>
											</g>
										</g>
									</g>
								</g>
							</g>
						</g>
					</g>
				</g>
			</g>
		</g>
		<g>
			<g>
				<g>
					<g>
						<g>
							<g>
								<g>
									<g>
										<g>
											<g>
												<g>
													<g>
														<g>
															<g>
																<g>
																	<g>
																		<g>
																			<g>
																				<g>
																					<g>
																						<g>
																							<g>
																								<g>
																									<g>
																										<path style="fill:#FFCCB3;" d="M149.565,92.089l-5.172,47.817c-1.048,8.148-2.558,20.216,10.4,21.285l0,0
																											c11.313,0.08,15.504-10.152,16.474-17.757c0.46-3.607,0.852-6.615,0.923-6.982
																											c0,0,12.345,0.421,14.779-11.538c1.176-5.779,2.629-17.88,3.816-28.843
																											c1.276-11.774-6.719-22.549-18.352-24.767l-1.156-0.22C158.665,69.436,150.865,79.438,149.565,92.089z"/>
																									</g>
																								</g>
																							</g>
																						</g>
																					</g>
																				</g>
																			</g>
																		</g>
																	</g>
																</g>
															</g>
														</g>
													</g>
												</g>
											</g>
										</g>
									</g>
								</g>
								<g>
									<g>
										<g>
											<g>
												<g>
													<g>
														<g>
															<g>
																<g>
																	<g>
																		<g>
																			<g>
																				<g>
																					<g>
																						<g>
																							<g>
																								<g>
																									<g>
																										<path style="fill:#FF9A6A;" d="M172.221,136.457c0,0-7.641-0.997-14.728-7.59
																											c0,0,2.138,9.482,14.306,10.683L172.221,136.457z"/>
																									</g>
																								</g>
																							</g>
																						</g>
																					</g>
																				</g>
																			</g>
																		</g>
																	</g>
																</g>
															</g>
														</g>
													</g>
												</g>
											</g>
										</g>
									</g>
								</g>
							</g>
						</g>
					</g>
					<g>
						<g>
							<g>
								<g>
									<g>
										<g>
											<g>
												<g>
													<g>
														<g>
															<g>
																<g>
																	<g>
																		<g>
																			<g>
																				<g>
																					<g>
																						<g>
																							<g>
																								<g>
																									<g>
																										<g>
																											<g>
																												<g>
																													<g>
																														<path style="fill:#263238;" d="M170.201,99.448c-0.275,0.04-1.367-1.017-3.267-1.752
																															c-1.89-0.749-3.524-0.761-3.673-0.967c-0.076-0.095,0.249-0.234,0.965-0.238
																															c0.706-0.006,1.83,0.158,3.011,0.62c1.181,0.463,2.068,1.086,2.529,1.55
																															C170.239,99.131,170.333,99.434,170.201,99.448z"/>
																													</g>
																												</g>
																											</g>
																										</g>
																									</g>
																								</g>
																							</g>
																						</g>
																					</g>
																				</g>
																			</g>
																		</g>
																	</g>
																</g>
															</g>
														</g>
													</g>
												</g>
											</g>
										</g>
										<g>
											<g>
												<g>
													<g>
														<g>
															<g>
																<g>
																	<g>
																		<g>
																			<g>
																				<g>
																					<g>
																						<g>
																							<g>
																								<g>
																									<g>
																										<g>
																											<g>
																												<g>
																													<g>
																														<path style="fill:#263238;" d="M168.836,103.67c-0.133,0.861-0.971,1.458-1.873,1.336
																															c-0.9-0.122-1.523-0.917-1.391-1.779c0.133-0.86,0.971-1.459,1.872-1.337
																															C168.345,102.013,168.968,102.809,168.836,103.67z"/>
																													</g>
																												</g>
																											</g>
																										</g>
																									</g>
																								</g>
																							</g>
																						</g>
																					</g>
																				</g>
																			</g>
																		</g>
																	</g>
																</g>
															</g>
														</g>
													</g>
												</g>
											</g>
										</g>
										<g>
											<g>
												<g>
													<g>
														<g>
															<g>
																<g>
																	<g>
																		<g>
																			<g>
																				<g>
																					<g>
																						<g>
																							<g>
																								<g>
																									<g>
																										<g>
																											<g>
																												<g>
																													<g>
																														<path style="fill:#263238;" d="M173.316,113.329c0.011-0.106,1.194-0.086,3.095,0.031
																															c0.48,0.041,0.943,0.033,1.083-0.273c0.176-0.319,0.075-0.864-0.048-1.454
																															c-0.225-1.222-0.461-2.504-0.708-3.847c-0.96-5.468-1.558-9.928-1.338-9.965
																															c0.221-0.037,1.177,4.366,2.137,9.834c0.225,1.346,0.441,2.63,0.646,3.857
																															c0.076,0.569,0.266,1.234-0.108,1.893c-0.194,0.327-0.587,0.517-0.904,0.54
																															c-0.32,0.035-0.585-0.011-0.82-0.041C174.462,113.648,173.303,113.436,173.316,113.329z"/>
																													</g>
																												</g>
																											</g>
																										</g>
																									</g>
																								</g>
																							</g>
																						</g>
																					</g>
																				</g>
																			</g>
																		</g>
																	</g>
																</g>
															</g>
														</g>
													</g>
												</g>
											</g>
										</g>
									</g>
								</g>
							</g>
							<g>
								<g>
									<g>
										<g>
											<g>
												<g>
													<g>
														<g>
															<g>
																<g>
																	<g>
																		<g>
																			<g>
																				<g>
																					<g>
																						<g>
																							<g>
																								<g>
																									<g>
																										<path style="fill:#263238;" d="M169.901,90.955c-0.248,0.426-1.828-0.1-3.78-0.225
																											c-1.949-0.167-3.596,0.118-3.771-0.34c-0.075-0.218,0.275-0.596,0.98-0.92
																											c0.701-0.324,1.764-0.556,2.933-0.47c1.169,0.089,2.181,0.476,2.82,0.901
																											C169.727,90.326,170.011,90.752,169.901,90.955z"/>
																									</g>
																								</g>
																							</g>
																						</g>
																					</g>
																				</g>
																			</g>
																		</g>
																	</g>
																</g>
															</g>
														</g>
													</g>
												</g>
											</g>
										</g>
									</g>
								</g>
							</g>
							<g>
								<g>
									<g>
										<g>
											<g>
												<g>
													<g>
														<g>
															<g>
																<g>
																	<g>
																		<g>
																			<g>
																				<g>
																					<g>
																						<g>
																							<g>
																								<g>
																									<g>
																										<path style="fill:#263238;" d="M188.686,96.935c-0.255,0.341-1.787-0.248-3.693-0.529
																											c-1.903-0.316-3.524-0.22-3.682-0.626c-0.067-0.193,0.286-0.484,0.987-0.697
																											c0.695-0.214,1.743-0.317,2.885-0.139c1.142,0.18,2.121,0.601,2.734,1.02
																											C188.535,96.383,188.8,96.771,188.686,96.935z"/>
																									</g>
																								</g>
																							</g>
																						</g>
																					</g>
																				</g>
																			</g>
																		</g>
																	</g>
																</g>
															</g>
														</g>
													</g>
												</g>
											</g>
										</g>
									</g>
								</g>
							</g>
						</g>
					</g>
					<g>
						<g>
							<g>
								<g>
									<g>
										<g>
											<g>
												<g>
													<g>
														<g>
															<g>
																<g>
																	<g>
																		<g>
																			<g>
																				<g>
																					<g>
																						<g>
																							<path style="fill:#FFCCB3;" d="M148.835,101.322c-0.201-0.128-8.265-3.991-9.404,4.697
																								c-1.139,8.688,7.818,8.039,7.866,7.792C147.345,113.563,148.835,101.322,148.835,101.322z"/>
																						</g>
																					</g>
																				</g>
																			</g>
																		</g>
																	</g>
																</g>
															</g>
														</g>
													</g>
												</g>
											</g>
										</g>
									</g>
								</g>
							</g>
						</g>
						<g>
							<g>
								<g>
									<g>
										<g>
											<g>
												<g>
													<g>
														<g>
															<g>
																<g>
																	<g>
																		<g>
																			<g>
																				<g>
																					<g>
																						<g>
																							<g>
																								<path style="fill:#FF9A6A;" d="M145.075,110.171c-0.035-0.033-0.165,0.086-0.436,0.17
																									c-0.264,0.081-0.704,0.104-1.135-0.125c-0.873-0.457-1.455-2.016-1.292-3.587
																									c0.082-0.793,0.346-1.525,0.708-2.111c0.349-0.601,0.818-0.991,1.291-1.012
																									c0.474-0.046,0.765,0.273,0.839,0.532c0.085,0.258,0.007,0.424,0.051,0.445
																									c0.022,0.025,0.206-0.121,0.182-0.489c-0.013-0.177-0.088-0.396-0.27-0.589
																									c-0.186-0.197-0.481-0.324-0.808-0.331c-0.676-0.042-1.36,0.496-1.758,1.14
																									c-0.435,0.642-0.751,1.462-0.842,2.353c-0.174,1.758,0.508,3.514,1.716,4.041
																									c0.59,0.24,1.124,0.122,1.414-0.049C145.032,110.379,145.103,110.191,145.075,110.171z"/>
																							</g>
																						</g>
																					</g>
																				</g>
																			</g>
																		</g>
																	</g>
																</g>
															</g>
														</g>
													</g>
												</g>
											</g>
										</g>
									</g>
								</g>
							</g>
						</g>
					</g>
					<g>
						<g>
							<g>
								<g>
									<g>
										<path style="fill:#263238;" d="M172.959,119.126c0.056-0.222-1.636-0.443-3.016-1.771
											c-0.688-0.653-1.147-1.411-1.489-1.964c-0.337-0.558-0.581-0.904-0.665-0.862c-0.079,0.04,0.007,0.441,0.245,1.07
											c0.242,0.62,0.672,1.494,1.452,2.235c0.771,0.751,1.702,1.124,2.365,1.267C172.521,119.253,172.949,119.2,172.959,119.126
											z"/>
									</g>
								</g>
							</g>
						</g>
					</g>
					<g>
						<g>
							<g>
								<g>
									<g>
										<g>
											<g>
												<g>
													<g>
														<g>
															<g>
																<g>
																	<g>
																		<path style="fill:#263238;" d="M187.936,101.041c-0.216,0.17-1.691-0.137-3.697,0.221
																			c-2.005,0.341-3.413,1.151-3.646,1.059c-0.113-0.039,0.095-0.315,0.707-0.677c0.603-0.359,1.651-0.79,2.9-1.008
																			c1.25-0.217,2.328-0.158,2.961-0.014C187.808,100.765,188.044,100.963,187.936,101.041z"/>
																	</g>
																</g>
															</g>
														</g>
													</g>
												</g>
											</g>
										</g>
									</g>
								</g>
							</g>
						</g>
					</g>
					<g>
						<g>
							<g>
								<g>
									<g>
										<g>
											<g>
												<g>
													<g>
														<g>
															<g>
																<g>
																	<path style="fill:#263238;" d="M185.433,106.074c-0.133,0.861-0.971,1.458-1.873,1.336
																		c-0.9-0.122-1.523-0.917-1.391-1.778c0.133-0.86,0.971-1.459,1.871-1.337
																		C184.942,104.416,185.566,105.213,185.433,106.074z"/>
																</g>
															</g>
														</g>
													</g>
												</g>
											</g>
										</g>
									</g>
								</g>
							</g>
						</g>
					</g>
					<g>
						<g>
							<g>
								<g>
									<path style="fill:#263238;" d="M208.403,87.128c-0.075-0.501-0.382-0.943-0.786-1.249c-0.881-0.668-1.979-0.72-3.03-0.859
										c-2.615-0.346-5.136-1.318-7.334-2.774c0.862-0.318,1.681-0.732,2.402-1.302c1.489-1.176,2.492-3.126,2.088-4.98
										c-0.076-0.348-0.23-0.721-0.556-0.864c-0.517-0.227-1.048,0.245-1.47,0.62c-1.389,1.231-2.593,1.689-4.406,1.291
										c-1.126-0.247-2.2-0.631-3.031-1.292c-0.031-0.041-0.058-0.086-0.09-0.128c-0.378-0.493-0.748-0.964-1.113-1.422
										c-0.001-0.002-0.002-0.003-0.002-0.004l0.001,0.003c-2.749-3.441-5.172-5.885-7.794-7.311
										c-3.843-2.091-10.507-3.53-14.838-2.915c-4.331,0.615-8.501,3.587-9.585,7.825c-2.126-2.266-5.666-2.66-8.671-1.839
										l-0.068-0.04c-3.329,0.769-5.537,3.936-6.859,7.086c-0.072,0.172-0.138,0.348-0.207,0.521
										c-1.28,1.588-2.919,2.886-4.79,3.703c-0.33,0.144-0.71,0.323-0.788,0.674c-0.078,0.348,0.186,0.675,0.45,0.915
										c0.703,0.638,1.554,1.102,2.463,1.375c-0.382,0.741-0.813,1.454-1.32,2.124c-0.432,0.569-0.946,1.251-0.704,1.924
										c0.187,0.52,0.788,0.795,1.34,0.779c0.552-0.017,1.068-0.261,1.566-0.501c-0.456,0.812-0.911,1.625-1.367,2.437
										c1.133,0.336,2.342,0.382,3.505,0.171c0.326,3.128,0.642,7.107,1.188,9.264c1.337,0.151,2.638-0.015,3.376,0.822
										c1.003,1.137,1.284,3.089,3.228,2.586c0.989-0.256,2.084-2.143,2.513-3.071c2.846-6.158,4.34-12.935,4.356-19.718
										c1.488-1.258,3.22-2.226,5.071-2.834l-0.158,0.112c3.512-0.781,7.464-1.491,10.483,0.465
										c2.342,1.518,3.503,4.265,5.122,6.538c3.068,4.307,7.101,6.899,12.323,7.733c0.051,3.7-0.876,8.278-1.092,11.7l3.78-5.12
										l-0.001,0.028c0.281-0.371,0.521-0.751,0.755-1.132l0.079-0.115l0.002-0.015c0.373-0.613,0.731-1.228,1.181-1.824
										c0.01,0.011,0.019,0.022,0.029,0.033c1.654,1.84,4.658-0.331,3.435-2.482c-0.243-0.426-0.547-0.817-0.908-1.152
										c0.75,0.888,1.962,1.413,3.106,1.202c1.144-0.212,2.13-1.229,2.168-2.392c0.026-0.794-0.454-1.561-1.128-1.955
										c1.475,0.287,3.035,0.14,4.419-0.45C207.64,88.933,208.568,88.231,208.403,87.128z"/>
								</g>
							</g>
						</g>
					</g>
					<g>
						<g>
							<g>
								<g>
									<g>
										<path style="fill:#455A64;" d="M162.5,73.594c0.02,0.034-0.543,0.261-1.341,0.968c-0.79,0.704-1.733,1.98-2.32,3.797
											c-0.297,0.902-0.536,1.922-0.665,3.035c-0.134,1.112-0.183,2.314-0.243,3.58c-0.064,1.265-0.129,2.602-0.369,3.973
											c-0.12,0.684-0.284,1.376-0.515,2.059c-0.232,0.671-0.499,1.397-1.088,1.929c-0.47,0.434-1.187,0.568-1.772,0.376
											c-0.592-0.177-1.091-0.561-1.434-1.045c-0.672-0.997-0.733-2.171-0.808-3.207l0.25,0.06
											c-0.52,0.864-1.05,1.715-1.764,2.361c-0.704,0.652-1.618,1.031-2.499,1.007c-0.439-0.011-0.869-0.132-1.22-0.363
											c-0.359-0.23-0.599-0.577-0.75-0.932c-0.141-0.36-0.193-0.744-0.132-1.101c0.062-0.356,0.242-0.68,0.497-0.895
											l0.115,0.129c-1.055,0.953-2.105,1.409-2.822,1.646c-0.362,0.118-0.648,0.181-0.841,0.219
											c-0.194,0.034-0.295,0.046-0.297,0.038c-0.002-0.008,0.096-0.036,0.286-0.084c0.188-0.053,0.468-0.13,0.821-0.26
											c0.699-0.261,1.719-0.736,2.735-1.685l0.115,0.129c-0.456,0.384-0.568,1.137-0.288,1.786
											c0.142,0.32,0.363,0.631,0.68,0.827c0.314,0.202,0.706,0.309,1.108,0.315c0.81,0.013,1.663-0.343,2.323-0.963
											c0.674-0.618,1.188-1.447,1.703-2.313l0.219-0.367l0.032,0.427c0.076,1.035,0.154,2.164,0.768,3.064
											c0.307,0.434,0.765,0.781,1.283,0.934c0.518,0.164,1.097,0.054,1.506-0.317c0.513-0.46,0.781-1.145,1.007-1.806
											c0.226-0.666,0.388-1.343,0.508-2.016c0.24-1.347,0.31-2.675,0.382-3.938c0.068-1.264,0.125-2.471,0.271-3.596
											c0.141-1.126,0.395-2.158,0.709-3.071c0.62-1.837,1.61-3.125,2.437-3.815C161.921,73.785,162.5,73.594,162.5,73.594z"/>
									</g>
								</g>
							</g>
						</g>
					</g>
					<g>
						<g>
							<g>
								<g>
									<g>
										<path style="fill:#455A64;" d="M198.516,89.688c0.002,0.004-0.034,0.028-0.107,0.071c-0.089,0.05-0.196,0.111-0.327,0.185
											c-0.143,0.084-0.324,0.18-0.55,0.269c-0.223,0.096-0.477,0.213-0.78,0.302c-1.184,0.403-3.045,0.724-5.28,0.33
											c-2.214-0.384-4.798-1.484-6.98-3.539c-2.213-2.016-4.034-4.819-5.427-7.948c-0.709-1.565-1.251-3.148-1.88-4.625
											c-0.624-1.477-1.341-2.859-2.273-3.992c-0.919-1.137-2.036-2.028-3.237-2.517c-0.597-0.256-1.215-0.369-1.811-0.424
											c-0.6-0.038-1.178,0.018-1.719,0.128c-1.082,0.229-1.989,0.707-2.695,1.224c-0.709,0.523-1.211,1.104-1.569,1.611
											c-0.679,1.047-0.792,1.756-0.834,1.739c-0.005-0.001,0.003-0.044,0.025-0.126c0.027-0.098,0.06-0.218,0.1-0.363
											c0.097-0.317,0.29-0.77,0.617-1.311c0.349-0.525,0.849-1.13,1.566-1.677c0.713-0.542,1.636-1.045,2.748-1.294
											c0.555-0.12,1.153-0.184,1.775-0.15c0.618,0.05,1.267,0.165,1.886,0.425c1.249,0.497,2.405,1.411,3.351,2.57
											c0.96,1.156,1.695,2.562,2.327,4.049c0.637,1.488,1.181,3.067,1.884,4.618c1.382,3.106,3.177,5.876,5.345,7.871
											c2.14,2.034,4.661,3.128,6.838,3.534c2.195,0.412,4.03,0.128,5.21-0.238C197.909,90.036,198.498,89.651,198.516,89.688z"
											/>
									</g>
								</g>
							</g>
						</g>
					</g>
					<g>
						<g>
							<g>
								<g>
									<g>
										<path style="fill:#455A64;" d="M200.232,84.506c0.008,0.018-0.159,0.106-0.468,0.252
											c-0.307,0.151-0.772,0.326-1.359,0.503c-0.586,0.181-1.303,0.33-2.109,0.431c-0.807,0.087-1.702,0.116-2.638,0.043
											c-0.935-0.083-1.813-0.262-2.595-0.481c-0.778-0.234-1.46-0.5-2.008-0.776c-0.549-0.271-0.978-0.522-1.256-0.722
											c-0.281-0.195-0.431-0.309-0.42-0.326c0.029-0.045,0.656,0.376,1.761,0.865c0.55,0.249,1.228,0.491,1.994,0.706
											c0.77,0.201,1.632,0.368,2.548,0.45c0.916,0.071,1.793,0.05,2.586-0.02c0.791-0.085,1.5-0.211,2.084-0.365
											C199.522,84.767,200.211,84.456,200.232,84.506z"/>
									</g>
								</g>
							</g>
						</g>
					</g>
				</g>
			</g>
			<g>
				<g>
					<g>
						<path style="fill:#455A64;" d="M89.619,177.937c0,0,14.091-43.223,30.711-42.311l24.605-0.728c0,0,4.706,12.563,13.738,13.419
							c9.033,0.856,12.594-4.881,12.594-4.881s25.698,10.161,28.892,20.924c3.195,10.763,0.761,39.458,0.761,39.458l-17.629-0.915
							l1.085,22.973l8.758,44.57l-88.748,1.753l2.499-69.047l2.719-19.757L89.619,177.937z"/>
					</g>
				</g>
			</g>
			<g>
				<g>
					<g>
						<g>
							<path style="fill:#263238;" d="M114.985,153.706c0.042,0.009-0.021,0.488-0.17,1.344c-0.181,0.986-0.403,2.195-0.664,3.619
								c-0.572,3.053-1.352,7.271-2.134,11.943c-0.781,4.674-1.416,8.916-1.868,11.989c-0.216,1.432-0.4,2.647-0.549,3.638
								c-0.138,0.858-0.235,1.331-0.277,1.326c-0.042-0.005-0.027-0.487,0.037-1.354c0.063-0.868,0.183-2.121,0.354-3.666
								c0.341-3.091,0.909-7.352,1.691-12.035c0.784-4.681,1.633-8.895,2.317-11.929c0.341-1.517,0.635-2.741,0.858-3.582
								C114.8,154.157,114.943,153.697,114.985,153.706z"/>
						</g>
					</g>
				</g>
			</g>
			<g>
				<g>
					<g>
						<path style="fill:#FFCCB3;" d="M183.29,202.903c0,0-1.004,18.318,6.272,23.497c3.376,2.403,18.614,2.348,18.614,2.348
							l-7.257-24.93L183.29,202.903z"/>
					</g>
				</g>
			</g>
			<g style="opacity:0.3;">
				<g>
					<g>
						<g>
							<path d="M183.878,215.967c3.137-11.265,5.588-22.721,7.334-34.283c-2.397,3.911-5.032,12.661-7.072,18.394
								c-1.599,4.492-0.813,9.255-0.25,15.491"/>
						</g>
					</g>
				</g>
			</g>
			<g>
				<g>
					<g>
						<g>
							<path style="fill:#263238;" d="M193.127,177.159c0.082,0.04-0.557,1.498-1.569,3.86c-1.014,2.361-2.382,5.635-3.772,9.297
								c-1.388,3.665-2.533,7.023-3.34,9.463c-0.807,2.439-1.296,3.954-1.383,3.93c-0.041-0.012,0.028-0.405,0.19-1.107
								c0.16-0.703,0.423-1.712,0.774-2.952c0.701-2.479,1.785-5.874,3.179-9.554c1.396-3.678,2.834-6.938,3.953-9.259
								c0.559-1.161,1.031-2.091,1.377-2.723C192.879,177.481,193.088,177.14,193.127,177.159z"/>
						</g>
					</g>
				</g>
			</g>
			<g>
				<g>
					<g>
						<g>
							<path style="fill:#263238;" d="M168.903,219.66c0.027,0.033-0.336,0.387-1.018,0.999c-0.68,0.613-1.683,1.478-2.936,2.531
								c-2.505,2.106-6.022,4.949-9.992,7.978c-3.972,3.029-7.643,5.67-10.337,7.529c-1.347,0.93-2.446,1.668-3.217,2.162
								c-0.77,0.495-1.207,0.752-1.232,0.717c-0.025-0.035,0.366-0.359,1.093-0.915c0.836-0.626,1.873-1.402,3.1-2.321
								c2.625-1.948,6.249-4.642,10.216-7.666c3.964-3.025,7.519-5.808,10.092-7.825c1.211-0.941,2.233-1.735,3.058-2.376
								C168.46,219.918,168.876,219.627,168.903,219.66z"/>
						</g>
					</g>
				</g>
			</g>
		</g>
		<g>
			<g>
				<g>
					<path style="fill:#455A64;" d="M250.379,150.182l-12.93-14.465c-0.547-0.611-1.258-1.051-2.05-1.267l-11.71-3.186
						c-1.305-0.355-2.701-0.067-3.759,0.776l-11.317,9.02c-0.705,0.562-1.213,1.334-1.45,2.204l-10.364,38.094
						c-0.615,2.261,0.719,4.594,2.981,5.209l35.665,9.703c2.262,0.615,4.594-0.719,5.209-2.981l10.656-39.166
						C251.687,152.737,251.337,151.254,250.379,150.182z M244.205,154.981c-1.287,1.151-3.263,1.04-4.413-0.247l-8.221-9.194
						c-1.15-1.287-1.04-3.263,0.247-4.413h0c1.287-1.151,3.263-1.04,4.413,0.247l8.221,9.194
						C245.603,151.855,245.492,153.831,244.205,154.981z"/>
				</g>
			</g>
			<g>
				<g>
					
						<rect x="224.246" y="128.864" transform="matrix(0.9649 0.2625 -0.2625 0.9649 42.4249 -55.7831)" style="fill:#455A64;" width="11.469" height="4.038"/>
				</g>
			</g>
			<g>
				<g>
					<path style="fill:#263238;" d="M236.605,133.021l-13.726-3.734c-0.581-0.158-0.924-0.758-0.766-1.339l0.849-3.121
						c0.158-0.581,0.757-0.924,1.339-0.766l13.726,3.734c0.581,0.158,0.924,0.758,0.766,1.339l-0.849,3.121
						C237.785,132.836,237.186,133.179,236.605,133.021z"/>
				</g>
			</g>
		</g>
		<g>
			<g>
				<g>
					<path style="fill:#E0E0E0;" d="M196.557,178.076c-0.147-1.762-1.554-2.089-1.554-2.089s1.566-0.13,1.419-1.893
						c-0.147-1.762-1.371-2.252-1.371-2.252s1.485-0.321,1.342-2.034c-0.143-1.713-2.034-1.946-2.034-1.946s1.708-0.142,1.72-1.72
						c0.012-1.578-1.809-1.927-1.809-1.927l1.501-1.773l-0.486-5.829c-0.053-0.638-0.378-1.221-0.892-1.602l-5.454-4.039
						l-6.816,0.568l-0.984,0.082l-4.71,4.886c-0.444,0.461-0.668,1.09-0.615,1.728l0.486,5.829l1.773,1.5c0,0-1.738,0.646-1.465,2.2
						c0.273,1.554,1.981,1.412,1.981,1.412s-1.826,0.543-1.683,2.256c0.143,1.713,1.66,1.784,1.66,1.784s-1.126,0.685-0.979,2.447
						c0.147,1.762,1.713,1.632,1.713,1.632s-1.334,0.555-1.187,2.317c0.147,1.762,1.497,1.995,1.497,1.995l-1.676,2.161
						l1.028,12.335c0,0,0.832,2.494,3.867,2.241c3.035-0.253,3.149-3.023,3.149-3.023s0.273,2.688,2.774,2.529l0.333-0.028
						c2.492-0.257,2.317-2.953,2.317-2.953s0.571,2.713,3.606,2.46s3.443-2.85,3.443-2.85l-1.028-12.335l-2.011-1.853
						C195.411,180.291,196.704,179.838,196.557,178.076z"/>
				</g>
			</g>
			<g>
				<g>
					<path style="fill:#263238;" d="M188.925,150.974l-7.772,0.648c-0.35,0.029-0.657-0.231-0.686-0.58l-0.25-2.998
						c-0.029-0.35,0.231-0.657,0.58-0.686l7.772-0.648c0.35-0.029,0.657,0.231,0.686,0.58l0.25,2.998
						C189.535,150.637,189.275,150.945,188.925,150.974z"/>
				</g>
			</g>
			<g>
				<g>
					<g>
						<path style="fill:#263238;" d="M194.273,164.236c0.012,0.143-3.725,0.572-8.345,0.957c-4.622,0.385-8.378,0.581-8.389,0.438
							c-0.012-0.143,3.724-0.572,8.346-0.957C190.505,164.288,194.261,164.092,194.273,164.236z"/>
					</g>
				</g>
			</g>
			<g>
				<g>
					<g>
						<path style="fill:#263238;" d="M195.639,162.463c0.012,0.143-4.305,0.62-9.64,1.065c-5.337,0.445-9.672,0.689-9.684,0.546
							c-0.012-0.143,4.304-0.62,9.641-1.065C191.291,162.564,195.627,162.32,195.639,162.463z"/>
					</g>
				</g>
			</g>
			<g>
				<g>
					<path style="fill:none;stroke:#FFFFFF;stroke-miterlimit:10;" d="M181.14,151.622"/>
				</g>
			</g>
			<g>
				<g>
					<g>
						<path style="fill:#263238;" d="M194.775,167.961c0.012,0.143-3.696,0.569-8.281,0.952c-4.587,0.382-8.313,0.576-8.325,0.432
							c-0.012-0.143,3.695-0.569,8.282-0.951C191.036,168.012,194.764,167.818,194.775,167.961z"/>
					</g>
				</g>
			</g>
			<g>
				<g>
					<g>
						<path style="fill:#263238;" d="M195.089,171.721c0.012,0.143-3.696,0.569-8.281,0.951c-4.587,0.382-8.313,0.576-8.325,0.432
							c-0.012-0.143,3.695-0.569,8.282-0.951C191.349,171.771,195.077,171.577,195.089,171.721z"/>
					</g>
				</g>
			</g>
			<g>
				<g>
					<g>
						<path style="fill:#263238;" d="M195.434,175.868c0.012,0.143-3.696,0.569-8.281,0.951c-4.587,0.382-8.313,0.576-8.325,0.432
							c-0.012-0.143,3.695-0.569,8.282-0.951C191.695,175.919,195.423,175.725,195.434,175.868z"/>
					</g>
				</g>
			</g>
			<g>
				<g>
					<g>
						<path style="fill:#263238;" d="M195.78,180.016c0.012,0.143-3.696,0.569-8.281,0.951c-4.587,0.382-8.313,0.576-8.325,0.432
							c-0.012-0.143,3.695-0.569,8.282-0.951C192.041,180.067,195.768,179.873,195.78,180.016z"/>
					</g>
				</g>
			</g>
			<g>
				<g>
					<g>
						<path style="fill:#263238;" d="M197.429,182.229c0.012,0.143-4.341,0.623-9.722,1.072c-5.383,0.449-9.754,0.696-9.766,0.552
							c-0.012-0.143,4.34-0.623,9.723-1.071C193.044,182.333,197.417,182.085,197.429,182.229z"/>
					</g>
				</g>
			</g>
		</g>
		<g>
			<g>
				<g>
					<path style="fill:#E0E0E0;" d="M218.715,163.181c-0.024-2.037-1.614-2.528-1.614-2.528s1.811-0.021,1.787-2.058
						c-0.024-2.037-1.39-2.7-1.39-2.7s1.733-0.246,1.71-2.227c-0.023-1.98-2.176-2.404-2.176-2.404s1.974-0.023,2.118-1.835
						c0.144-1.812-1.92-2.364-1.92-2.364l1.87-1.914l-0.078-6.738c-0.008-0.737-0.334-1.435-0.894-1.915l-5.935-5.09l-7.879,0.091
						l-1.137,0.013l-5.815,5.226c-0.548,0.493-0.858,1.198-0.849,1.935l0.078,6.738l1.914,1.87c0,0-2.05,0.6-1.865,2.408
						c0.185,1.808,2.16,1.785,2.16,1.785s-2.143,0.473-2.12,2.454c0.023,1.98,1.761,2.187,1.761,2.187s-1.35,0.695-1.327,2.732
						c0.024,2.037,1.834,2.016,1.834,2.016s-1.578,0.528-1.555,2.565c0.024,2.037,1.556,2.415,1.556,2.415l-2.105,2.344
						l0.165,14.259c0,0,0.751,2.934,4.259,2.893s3.868-3.214,3.868-3.214s0.093,3.111,2.979,3.135l0.385-0.005
						c2.885-0.09,2.906-3.203,2.906-3.203s0.433,3.164,3.941,3.123c3.508-0.041,4.191-2.991,4.191-2.991l-0.165-14.259l-2.158-2.295
						C217.215,165.632,218.738,165.218,218.715,163.181z"/>
				</g>
			</g>
			<g>
				<g>
					<g>
						<path style="fill:#263238;" d="M217.23,147.088c0.002,0.144-4.328,0.311-9.669,0.372c-5.343,0.062-9.674-0.005-9.676-0.148
							c-0.002-0.144,4.327-0.31,9.67-0.372C212.896,146.878,217.229,146.945,217.23,147.088z"/>
					</g>
				</g>
			</g>
			<g>
				<g>
					<g>
						<path style="fill:#263238;" d="M218.946,145.164c0.002,0.144-4.998,0.318-11.165,0.39c-6.17,0.071-11.171,0.013-11.172-0.131
							c-0.002-0.144,4.997-0.318,11.166-0.389C213.942,144.962,218.944,145.02,218.946,145.164z"/>
					</g>
				</g>
			</g>
			<g>
				<g>
					<path style="fill:none;stroke:#FFFFFF;stroke-miterlimit:10;" d="M203.178,131.512"/>
				</g>
			</g>
			<g>
				<g>
					<g>
						<path style="fill:#263238;" d="M217.501,151.411c0.002,0.144-4.295,0.31-9.595,0.372c-5.302,0.061-9.6-0.006-9.602-0.149
							c-0.002-0.144,4.294-0.31,9.596-0.371C213.2,151.2,217.499,151.267,217.501,151.411z"/>
					</g>
				</g>
			</g>
			<g>
				<g>
					<g>
						<path style="fill:#263238;" d="M217.551,155.757c0.002,0.144-4.294,0.31-9.595,0.371c-5.302,0.061-9.6-0.005-9.602-0.149
							c-0.002-0.144,4.294-0.31,9.596-0.371C213.25,155.546,217.549,155.613,217.551,155.757z"/>
					</g>
				</g>
			</g>
			<g>
				<g>
					<g>
						<path style="fill:#263238;" d="M217.606,160.551c0.002,0.144-4.295,0.31-9.595,0.371c-5.302,0.061-9.6-0.005-9.602-0.149
							c-0.002-0.144,4.294-0.31,9.596-0.371C213.306,160.341,217.605,160.408,217.606,160.551z"/>
					</g>
				</g>
			</g>
			<g>
				<g>
					<g>
						<path style="fill:#263238;" d="M217.662,165.346c0.002,0.144-4.295,0.31-9.595,0.371c-5.302,0.061-9.6-0.006-9.602-0.149
							c-0.002-0.144,4.294-0.31,9.596-0.371C213.361,165.136,217.66,165.203,217.662,165.346z"/>
					</g>
				</g>
			</g>
			<g>
				<g>
					<g>
						<path style="fill:#263238;" d="M219.374,168.024c0.002,0.144-5.04,0.319-11.26,0.391c-6.222,0.072-11.266,0.014-11.267-0.13
							c-0.002-0.144,5.039-0.319,11.261-0.391C214.328,167.822,219.373,167.88,219.374,168.024z"/>
					</g>
				</g>
			</g>
			<g>
				<g>
					<g>
						<path style="fill:#455A64;" d="M212.02,131.41l-8.669,0.1c-0.491,0.006-0.894-0.388-0.9-0.879l-0.036-3.151
							c-0.006-0.491,0.388-0.894,0.879-0.9l8.669-0.1c0.491-0.006,0.894,0.388,0.9,0.879l0.036,3.151
							C212.905,131.001,212.511,131.404,212.02,131.41z"/>
					</g>
				</g>
				<g>
					<g>
						<g>
							<path style="fill:#263238;" d="M204.079,131.467c-0.144,0.003-0.284-1.064-0.313-2.384c-0.029-1.32,0.064-2.393,0.208-2.396
								c0.144-0.003,0.284,1.064,0.313,2.384C204.316,130.391,204.223,131.464,204.079,131.467z"/>
						</g>
					</g>
				</g>
				<g>
					<g>
						<g>
							<path style="fill:#263238;" d="M205.85,131.32c-0.144,0.003-0.284-1.064-0.313-2.384c-0.029-1.32,0.064-2.393,0.208-2.396
								c0.144-0.003,0.284,1.064,0.313,2.385C206.087,130.244,205.994,131.317,205.85,131.32z"/>
						</g>
					</g>
				</g>
				<g>
					<g>
						<g>
							<path style="fill:#263238;" d="M207.64,131.386c-0.144,0.003-0.284-1.064-0.313-2.384c-0.029-1.32,0.064-2.393,0.208-2.396
								c0.144-0.003,0.284,1.064,0.313,2.385C207.876,130.311,207.783,131.383,207.64,131.386z"/>
						</g>
					</g>
				</g>
				<g>
					<g>
						<g>
							<path style="fill:#263238;" d="M209.563,131.299c-0.144,0.003-0.284-1.064-0.313-2.384c-0.029-1.32,0.064-2.393,0.208-2.396
								c0.144-0.003,0.284,1.064,0.313,2.384C209.799,130.223,209.706,131.296,209.563,131.299z"/>
						</g>
					</g>
				</g>
				<g>
					<g>
						<g>
							<path style="fill:#263238;" d="M211.342,131.247c-0.144,0.003-0.284-1.064-0.313-2.384c-0.029-1.32,0.064-2.393,0.208-2.396
								c0.144-0.003,0.284,1.064,0.313,2.384C211.579,130.171,211.486,131.244,211.342,131.247z"/>
						</g>
					</g>
				</g>
			</g>
		</g>
		<g>
			<g>
				<g>
					<g>
						<path style="fill:#FF725E;" d="M168.047,184.139l79.941-0.925c2.377-0.027,4.281-1.976,4.254-4.353l-0.043-3.717
							c-0.028-2.377-1.977-4.281-4.353-4.254l-79.941,0.925c-2.377,0.027-4.281,1.977-4.254,4.353l0.043,3.717
							C163.721,182.262,165.67,184.166,168.047,184.139z"/>
					</g>
				</g>
				<g>
					<g>
						<path style="fill:#FF725E;" d="M245.153,181.917l-9.338,83.209c-0.264,2.349-2.212,4.148-4.575,4.224l-47.448,1.522
							c-2.503,0.08-4.639-1.793-4.886-4.285l-8.361-84.304c-0.276-2.786,1.902-5.208,4.114-5.222l65.147-0.428
							C243.244,176.611,245.471,179.085,245.153,181.917z"/>
					</g>
				</g>
				<g>
					<g>
						<g>
							<g>
								<g>
									<path style="fill:#FFFFFF;" d="M191.427,215.139c0,0-2.303,2.288-1.247,4.742c1.056,2.454,4.529,7.145,4.529,7.145
										s0.518-3.758,3.684-7.925l2.069,1.141l-2.225-8.728l-8.387,2.479L191.427,215.139z"/>
								</g>
							</g>
						</g>
						<g>
							<g>
								<g>
									<path style="fill:#FFFFFF;" d="M195.734,228.855c0,0,0.964,1.832,3.314,2.234c2.349,0.403,7.505,0.109,7.505,0.109
										l-0.09-7.776l-9.027,0.104C197.436,223.527,195.895,225.499,195.734,228.855z"/>
								</g>
							</g>
						</g>
					</g>
					<g>
						<g>
							<g>
								<g>
									<path style="fill:#FFFFFF;" d="M217.129,203.141c0,0-0.713-3.167-3.353-3.578c-2.64-0.411-8.459,0.036-8.459,0.036
										s2.907,2.437,4.753,7.334l-2.066,1.145l8.575,2.757l2.361-8.42L217.129,203.141z"/>
								</g>
							</g>
						</g>
						<g>
							<g>
								<g>
									<path style="fill:#FFFFFF;" d="M203.222,199.494c0,0-2.064-0.158-3.654,1.618c-1.59,1.776-4.083,6.298-4.083,6.298
										l6.633,4.059l4.712-7.7C206.83,203.768,205.979,201.415,203.222,199.494z"/>
								</g>
							</g>
						</g>
					</g>
					<g>
						<g>
							<g>
								<g>
									<path style="fill:#FFFFFF;" d="M215.961,231.135c0,0,3.155,0.764,4.693-1.421c1.538-2.185,3.714-7.6,3.714-7.6
										s-3.472,1.527-8.68,1.012l-0.112-2.36l-6.27,6.466l6.504,5.846L215.961,231.135z"/>
								</g>
							</g>
						</g>
						<g>
							<g>
								<g>
									<path style="fill:#FFFFFF;" d="M225.39,220.282c0,0,1.055-1.781,0.168-3.993c-0.887-2.212-3.838-6.45-3.838-6.45
										l-6.577,4.149l4.816,7.635C219.96,221.623,222.446,221.902,225.39,220.282z"/>
								</g>
							</g>
						</g>
					</g>
				</g>
				<g>
					<g>
						<g>
							<path style="fill:#263238;" d="M233.728,233.784c-0.143-0.014,0.839-11.315,2.192-25.24
								c1.354-13.929,2.704-25.335,2.711-25.192c0.014,0.265-0.838,11.313-2.193,25.242
								C235.085,222.518,233.871,233.797,233.728,233.784z"/>
						</g>
					</g>
				</g>
			</g>
			<g>
				<g>
					<g>
						<path style="fill:#263238;" d="M246.304,183.233c0.002,0.144-17.008,0.447-37.987,0.677c-20.986,0.23-37.995,0.3-37.996,0.156
							c-0.002-0.144,17.004-0.447,37.99-0.677C229.29,183.159,246.302,183.089,246.304,183.233z"/>
					</g>
				</g>
			</g>
		</g>
		<g>
			<g>
				<g>
					<path style="fill:#FFCCB3;" d="M239.661,235.223c0,0,6.85,1.268,5.15,10.3c0,0,3.045,8.023-0.951,11.115
						c-3.996,3.092-2.118,10.906-6.228,13.088c-2.173,1.154-6.262,1.953-9.633,2.45c-2.16,0.318-3.071-2.621-1.123-3.608
						c0.346-0.176,0.718-0.341,1.116-0.491l5.023-2.258l3.044-7.611l-9.19,1.204c-1.294,0.17-2.628-0.408-3.241-1.561
						c-0.54-1.016-0.463-2.299,2.004-3.372c4.239-1.844,11.416-2.791,11.416-2.791l1.167-8.067c0,0-2.841,2.689-3.704-0.304
						C233.648,240.322,239.661,235.223,239.661,235.223z"/>
				</g>
			</g>
			<g>
				<g>
					<g>
						<path style="fill:#FF9A6A;" d="M241.235,239.495c0.062,0.015,0.004,0.573-0.34,1.405c-0.341,0.826-1.009,1.918-2.057,2.827
							c-0.516,0.451-1.077,0.838-1.677,1.036c-0.592,0.205-1.227,0.166-1.656-0.061c-0.439-0.21-0.691-0.544-0.786-0.79
							c-0.094-0.253-0.066-0.403-0.036-0.406c0.071-0.032,0.187,0.578,0.967,0.858c0.371,0.145,0.851,0.14,1.353-0.053
							c0.499-0.189,1.004-0.546,1.493-0.975C240.495,241.611,241.09,239.428,241.235,239.495z"/>
					</g>
				</g>
			</g>
			<g>
				<g>
					<g>
						<path style="fill:#FF9A6A;" d="M244.056,255.096c0.02,0.018-0.124,0.24-0.474,0.553c-0.348,0.312-0.905,0.723-1.673,1.069
							c-1.533,0.734-3.817,1.129-6.293,1.519c-2.486,0.405-4.742,0.743-6.377,0.962c-1.636,0.219-2.652,0.318-2.662,0.247
							c-0.01-0.071,0.987-0.3,2.606-0.611c1.62-0.312,3.861-0.706,6.343-1.111c2.485-0.391,4.738-0.725,6.237-1.344
							C243.281,255.79,243.995,255.025,244.056,255.096z"/>
					</g>
				</g>
			</g>
		</g>
		<g>
			<g>
				<g>
					<path style="fill:#263238;" d="M236.176,133.052c-0.036,0.139-2.751-0.451-6.063-1.317c-3.313-0.867-5.968-1.682-5.932-1.821
						c0.036-0.139,2.751,0.45,6.063,1.317C233.557,132.098,236.212,132.913,236.176,133.052z"/>
				</g>
			</g>
		</g>
		<g>
			<g>
				<g>
					<path style="fill:#E0E0E0;" d="M156.608,165.957c0.282-1.746-1.005-2.401-1.005-2.401s1.552,0.251,1.833-1.495
						c0.282-1.746-0.788-2.515-0.788-2.515s1.518,0.046,1.792-1.651c0.274-1.697-1.505-2.378-1.505-2.378s1.692,0.273,2.084-1.255
						c0.391-1.528-1.292-2.306-1.292-2.306l1.883-1.36l0.932-5.775c0.102-0.632-0.073-1.277-0.48-1.77l-4.321-5.233l-6.752-1.09
						l-0.975-0.157l-5.748,3.608c-0.542,0.34-0.911,0.897-1.013,1.529l-0.932,5.775l1.36,1.883c0,0-1.842,0.209-1.952,1.783
						c-0.109,1.574,1.583,1.847,1.583,1.847s-1.903,0.087-2.177,1.784c-0.274,1.697,1.182,2.131,1.182,2.131s-1.258,0.394-1.54,2.14
						c-0.282,1.746,1.27,1.996,1.27,1.996s-1.428,0.217-1.71,1.963c-0.282,1.746,0.973,2.296,0.973,2.296l-2.147,1.693l-1.973,12.22
						c0,0,0.207,2.621,3.214,3.106c3.006,0.485,3.784-2.175,3.784-2.175s-0.382,2.675,2.083,3.122l0.33,0.053
						c2.481,0.351,2.96-2.308,2.96-2.308s-0.099,2.77,2.907,3.256c3.006,0.485,4.028-1.937,4.028-1.937l1.973-12.219l-1.506-2.283
						C154.963,167.831,156.327,167.703,156.608,165.957z"/>
				</g>
			</g>
			<g>
				<g>
					<path style="fill:#263238;" d="M155.728,137.814l-7.699-1.243c-0.346-0.056-0.582-0.382-0.526-0.728l0.479-2.97
						c0.056-0.346,0.382-0.582,0.728-0.526l7.699,1.243c0.346,0.056,0.582,0.382,0.526,0.728l-0.48,2.97
						C156.4,137.635,156.074,137.87,155.728,137.814z"/>
				</g>
			</g>
			<g>
				<g>
					<g>
						<path style="fill:#263238;" d="M157.725,151.974c-0.023,0.142-3.753-0.342-8.33-1.081c-4.579-0.739-8.271-1.453-8.248-1.595
							c0.023-0.142,3.752,0.342,8.331,1.081C154.055,151.118,157.747,151.832,157.725,151.974z"/>
					</g>
				</g>
			</g>
			<g>
				<g>
					<g>
						<path style="fill:#263238;" d="M159.477,150.583c-0.023,0.142-4.327-0.435-9.612-1.288c-5.287-0.854-9.553-1.66-9.53-1.802
							c0.023-0.142,4.326,0.435,9.613,1.288C155.233,149.634,159.5,150.441,159.477,150.583z"/>
					</g>
				</g>
			</g>
			<g>
				<g>
					<path style="fill:none;stroke:#FFFFFF;stroke-miterlimit:10;" d="M148.015,136.569"/>
				</g>
			</g>
			<g>
				<g>
					<g>
						<path style="fill:#263238;" d="M157.315,155.711c-0.023,0.142-3.724-0.337-8.266-1.071c-4.544-0.734-8.207-1.443-8.184-1.585
							c0.023-0.142,3.724,0.337,8.267,1.071C153.674,154.859,157.338,155.569,157.315,155.711z"/>
					</g>
				</g>
			</g>
			<g>
				<g>
					<g>
						<path style="fill:#263238;" d="M156.714,159.435c-0.023,0.142-3.724-0.338-8.267-1.071c-4.544-0.733-8.207-1.443-8.184-1.585
							c0.023-0.142,3.724,0.337,8.267,1.071C153.072,158.583,156.737,159.293,156.714,159.435z"/>
					</g>
				</g>
			</g>
			<g>
				<g>
					<g>
						<path style="fill:#263238;" d="M156.051,163.544c-0.023,0.142-3.725-0.337-8.267-1.071c-4.544-0.733-8.207-1.443-8.184-1.585
							c0.023-0.142,3.724,0.337,8.267,1.071C152.409,162.693,156.074,163.402,156.051,163.544z"/>
					</g>
				</g>
			</g>
			<g>
				<g>
					<g>
						<path style="fill:#263238;" d="M155.387,167.653c-0.023,0.142-3.725-0.337-8.266-1.071c-4.544-0.734-8.207-1.443-8.184-1.585
							c0.023-0.142,3.724,0.337,8.267,1.071C151.746,166.802,155.41,167.511,155.387,167.653z"/>
					</g>
				</g>
			</g>
			<g>
				<g>
					<g>
						<path style="fill:#263238;" d="M156.455,170.197c-0.023,0.142-4.363-0.441-9.694-1.301c-5.332-0.861-9.635-1.673-9.612-1.815
							c0.023-0.142,4.363,0.441,9.695,1.301C152.174,169.242,156.478,170.055,156.455,170.197z"/>
					</g>
				</g>
			</g>
		</g>
		<g>
			<g>
				<g>
					<path style="fill:#FFCCB3;" d="M140.829,152.043c0,0-4.829,1.691-5.012,3.915c-0.183,2.224-4.905,16.484-4.905,16.484
						l-21.307,10.952l-19.639-5.363c0,0-9.739,19.303-11.098,25.086c-1.057,4.497-1.159,17.971,4.668,19.798
						c7.948,2.491,19.766-3.513,26.257-8.925c9.418-7.853,28.478-26.39,31.129-32.133c2.651-5.744,4.357-11.776,4.357-11.776
						L140.829,152.043z"/>
				</g>
			</g>
		</g>
		<g>
			<g>
				<g>
					<g>
						<path style="fill:#FFCCB3;" d="M140.829,152.043c0,0,11.893-2.799,12.723-2.199c0.829,0.599,5.779,6.535,5.761,7.65
							c-0.018,1.115-1.493,3.465-1.493,3.465s1.659,5.208-2.424,6.996c0,0,3.005,2.2,1.938,4.833
							c-0.61,1.504-2.213,2.665-2.213,2.665l-0.722-3.348l-6.173-1.993l0,0l-3.232,0.928l-5.042-8.009L140.829,152.043z"/>
					</g>
				</g>
			</g>
			<g>
				<g>
					<g>
						<g>
							<path style="fill:#FF9A6A;" d="M155.01,167.971c-0.11-0.006,0.052-0.777-0.616-1.664c-0.62-0.936-2.101-1.464-3.844-1.858
								c-3.461-0.897-6.226-1.775-6.178-1.961c0.048-0.186,2.892,0.39,6.352,1.287c0.859,0.222,1.713,0.442,2.446,0.814
								c0.735,0.357,1.319,0.898,1.634,1.445C155.471,167.171,155.077,168.034,155.01,167.971z"/>
						</g>
					</g>
				</g>
			</g>
			<g>
				<g>
					<g>
						<g>
							<path style="fill:#FF9A6A;" d="M156.022,167.251c-0.096-0.004-0.14-0.98-0.132-2.553c-0.042-0.765,0.151-1.798-0.172-2.597
								c-0.331-0.808-1.532-0.958-2.696-1.221c-4.684-1.042-8.447-2.038-8.405-2.225c0.042-0.188,3.872,0.504,8.556,1.546
								c0.583,0.139,1.153,0.232,1.738,0.439c0.569,0.192,1.164,0.609,1.395,1.204c0.233,0.578,0.198,1.125,0.175,1.591
								c-0.034,0.438-0.067,0.865-0.099,1.285C156.248,166.287,156.118,167.255,156.022,167.251z"/>
						</g>
					</g>
				</g>
			</g>
			<g>
				<g>
					<g>
						<g>
							<path style="fill:#FF9A6A;" d="M157.954,160.938c-0.089,0.062-0.592-0.748-0.898-2.158c-0.175-0.688-0.36-1.508-0.825-2.248
								c-0.447-0.769-1.259-1.2-2.32-1.259c-4.309-0.109-7.849-0.249-7.854-0.457c-0.006-0.176,3.52-0.351,7.919-0.236
								c0.56,0.052,1.144,0.165,1.657,0.453c0.514,0.289,0.89,0.725,1.146,1.165c0.511,0.891,0.642,1.783,0.759,2.482
								C157.719,160.097,158.028,160.89,157.954,160.938z"/>
						</g>
					</g>
				</g>
			</g>
		</g>
		<g>
			<g>
				<g>
					<g>
						<path style="fill:#FF9A6A;" d="M116.737,180.057c0.042,0.09-1.479,0.892-3.946,2.163c-2.639,1.371-5.953,3.095-9.619,5
							c-3.638,1.961-6.927,3.734-9.545,5.145c-2.438,1.326-3.957,2.133-4.007,2.048c-0.048-0.08,1.383-1.037,3.762-2.475
							c2.379-1.438,5.714-3.347,9.464-5.333c3.75-1.984,7.203-3.669,9.729-4.828C115.102,180.618,116.698,179.973,116.737,180.057z"
							/>
					</g>
				</g>
			</g>
		</g>
	</g>
</g>
</svg>
